<?xml version="1.0" encoding="utf-8" standalone="no"?>
<!DOCTYPE svg PUBLIC "-//W3C//DTD SVG 1.1//EN"
  "http://www.w3.org/Graphics/SVG/1.1/DTD/svg11.dtd">
<svg xmlns:xlink="http://www.w3.org/1999/xlink" width="460.8pt" height="345.6pt" viewBox="0 0 460.8 345.6" xmlns="http://www.w3.org/2000/svg" version="1.1">
 <metadata>
  <rdf:RDF xmlns:dc="http://purl.org/dc/elements/1.1/" xmlns:cc="http://creativecommons.org/ns#" xmlns:rdf="http://www.w3.org/1999/02/22-rdf-syntax-ns#">
   <cc:Work>
    <dc:type rdf:resource="http://purl.org/dc/dcmitype/StillImage"/>
    <dc:date>2024-10-26T12:29:01.526117</dc:date>
    <dc:format>image/svg+xml</dc:format>
    <dc:creator>
     <cc:Agent>
      <dc:title>Matplotlib v3.9.2, https://matplotlib.org/</dc:title>
     </cc:Agent>
    </dc:creator>
   </cc:Work>
  </rdf:RDF>
 </metadata>
 <defs>
  <style type="text/css">*{stroke-linejoin: round; stroke-linecap: butt}</style>
 </defs>
 <g id="figure_1">
  <g id="patch_1">
   <path d="M 0 345.6 
L 460.8 345.6 
L 460.8 0 
L 0 0 
z
" style="fill: #ffffff"/>
  </g>
  <g id="axes_1">
   <g id="patch_2">
    <path d="M 57.6 307.584 
L 414.72 307.584 
L 414.72 41.472 
L 57.6 41.472 
z
" style="fill: #ffffff"/>
   </g>
   <g id="matplotlib.axis_1">
    <g id="xtick_1">
     <g id="line2d_1">
      <defs>
       <path id="m6b038b21bd" d="M 0 0 
L 0 3.5 
" style="stroke: #000000; stroke-width: 0.8"/>
      </defs>
      <g>
       <use xlink:href="#m6b038b21bd" x="73.133041" y="307.584" style="stroke: #000000; stroke-width: 0.8"/>
      </g>
     </g>
     <g id="text_1">
      <!-- 0 -->
      <g transform="translate(69.951791 322.182437) scale(0.1 -0.1)">
       <defs>
        <path id="DejaVuSans-30" d="M 2034 4250 
Q 1547 4250 1301 3770 
Q 1056 3291 1056 2328 
Q 1056 1369 1301 889 
Q 1547 409 2034 409 
Q 2525 409 2770 889 
Q 3016 1369 3016 2328 
Q 3016 3291 2770 3770 
Q 2525 4250 2034 4250 
z
M 2034 4750 
Q 2819 4750 3233 4129 
Q 3647 3509 3647 2328 
Q 3647 1150 3233 529 
Q 2819 -91 2034 -91 
Q 1250 -91 836 529 
Q 422 1150 422 2328 
Q 422 3509 836 4129 
Q 1250 4750 2034 4750 
z
" transform="scale(0.015625)"/>
       </defs>
       <use xlink:href="#DejaVuSans-30"/>
      </g>
     </g>
    </g>
    <g id="xtick_2">
     <g id="line2d_2">
      <g>
       <use xlink:href="#m6b038b21bd" x="143.101693" y="307.584" style="stroke: #000000; stroke-width: 0.8"/>
      </g>
     </g>
     <g id="text_2">
      <!-- 100 -->
      <g transform="translate(133.557943 322.182437) scale(0.1 -0.1)">
       <defs>
        <path id="DejaVuSans-31" d="M 794 531 
L 1825 531 
L 1825 4091 
L 703 3866 
L 703 4441 
L 1819 4666 
L 2450 4666 
L 2450 531 
L 3481 531 
L 3481 0 
L 794 0 
L 794 531 
z
" transform="scale(0.015625)"/>
       </defs>
       <use xlink:href="#DejaVuSans-31"/>
       <use xlink:href="#DejaVuSans-30" x="63.623047"/>
       <use xlink:href="#DejaVuSans-30" x="127.246094"/>
      </g>
     </g>
    </g>
    <g id="xtick_3">
     <g id="line2d_3">
      <g>
       <use xlink:href="#m6b038b21bd" x="213.070345" y="307.584" style="stroke: #000000; stroke-width: 0.8"/>
      </g>
     </g>
     <g id="text_3">
      <!-- 200 -->
      <g transform="translate(203.526595 322.182437) scale(0.1 -0.1)">
       <defs>
        <path id="DejaVuSans-32" d="M 1228 531 
L 3431 531 
L 3431 0 
L 469 0 
L 469 531 
Q 828 903 1448 1529 
Q 2069 2156 2228 2338 
Q 2531 2678 2651 2914 
Q 2772 3150 2772 3378 
Q 2772 3750 2511 3984 
Q 2250 4219 1831 4219 
Q 1534 4219 1204 4116 
Q 875 4013 500 3803 
L 500 4441 
Q 881 4594 1212 4672 
Q 1544 4750 1819 4750 
Q 2544 4750 2975 4387 
Q 3406 4025 3406 3419 
Q 3406 3131 3298 2873 
Q 3191 2616 2906 2266 
Q 2828 2175 2409 1742 
Q 1991 1309 1228 531 
z
" transform="scale(0.015625)"/>
       </defs>
       <use xlink:href="#DejaVuSans-32"/>
       <use xlink:href="#DejaVuSans-30" x="63.623047"/>
       <use xlink:href="#DejaVuSans-30" x="127.246094"/>
      </g>
     </g>
    </g>
    <g id="xtick_4">
     <g id="line2d_4">
      <g>
       <use xlink:href="#m6b038b21bd" x="283.038997" y="307.584" style="stroke: #000000; stroke-width: 0.8"/>
      </g>
     </g>
     <g id="text_4">
      <!-- 300 -->
      <g transform="translate(273.495247 322.182437) scale(0.1 -0.1)">
       <defs>
        <path id="DejaVuSans-33" d="M 2597 2516 
Q 3050 2419 3304 2112 
Q 3559 1806 3559 1356 
Q 3559 666 3084 287 
Q 2609 -91 1734 -91 
Q 1441 -91 1130 -33 
Q 819 25 488 141 
L 488 750 
Q 750 597 1062 519 
Q 1375 441 1716 441 
Q 2309 441 2620 675 
Q 2931 909 2931 1356 
Q 2931 1769 2642 2001 
Q 2353 2234 1838 2234 
L 1294 2234 
L 1294 2753 
L 1863 2753 
Q 2328 2753 2575 2939 
Q 2822 3125 2822 3475 
Q 2822 3834 2567 4026 
Q 2313 4219 1838 4219 
Q 1578 4219 1281 4162 
Q 984 4106 628 3988 
L 628 4550 
Q 988 4650 1302 4700 
Q 1616 4750 1894 4750 
Q 2613 4750 3031 4423 
Q 3450 4097 3450 3541 
Q 3450 3153 3228 2886 
Q 3006 2619 2597 2516 
z
" transform="scale(0.015625)"/>
       </defs>
       <use xlink:href="#DejaVuSans-33"/>
       <use xlink:href="#DejaVuSans-30" x="63.623047"/>
       <use xlink:href="#DejaVuSans-30" x="127.246094"/>
      </g>
     </g>
    </g>
    <g id="xtick_5">
     <g id="line2d_5">
      <g>
       <use xlink:href="#m6b038b21bd" x="353.007649" y="307.584" style="stroke: #000000; stroke-width: 0.8"/>
      </g>
     </g>
     <g id="text_5">
      <!-- 400 -->
      <g transform="translate(343.463899 322.182437) scale(0.1 -0.1)">
       <defs>
        <path id="DejaVuSans-34" d="M 2419 4116 
L 825 1625 
L 2419 1625 
L 2419 4116 
z
M 2253 4666 
L 3047 4666 
L 3047 1625 
L 3713 1625 
L 3713 1100 
L 3047 1100 
L 3047 0 
L 2419 0 
L 2419 1100 
L 313 1100 
L 313 1709 
L 2253 4666 
z
" transform="scale(0.015625)"/>
       </defs>
       <use xlink:href="#DejaVuSans-34"/>
       <use xlink:href="#DejaVuSans-30" x="63.623047"/>
       <use xlink:href="#DejaVuSans-30" x="127.246094"/>
      </g>
     </g>
    </g>
    <g id="text_6">
     <!-- Training Step -->
     <g transform="translate(203.46 335.860562) scale(0.1 -0.1)">
      <defs>
       <path id="DejaVuSans-54" d="M -19 4666 
L 3928 4666 
L 3928 4134 
L 2272 4134 
L 2272 0 
L 1638 0 
L 1638 4134 
L -19 4134 
L -19 4666 
z
" transform="scale(0.015625)"/>
       <path id="DejaVuSans-72" d="M 2631 2963 
Q 2534 3019 2420 3045 
Q 2306 3072 2169 3072 
Q 1681 3072 1420 2755 
Q 1159 2438 1159 1844 
L 1159 0 
L 581 0 
L 581 3500 
L 1159 3500 
L 1159 2956 
Q 1341 3275 1631 3429 
Q 1922 3584 2338 3584 
Q 2397 3584 2469 3576 
Q 2541 3569 2628 3553 
L 2631 2963 
z
" transform="scale(0.015625)"/>
       <path id="DejaVuSans-61" d="M 2194 1759 
Q 1497 1759 1228 1600 
Q 959 1441 959 1056 
Q 959 750 1161 570 
Q 1363 391 1709 391 
Q 2188 391 2477 730 
Q 2766 1069 2766 1631 
L 2766 1759 
L 2194 1759 
z
M 3341 1997 
L 3341 0 
L 2766 0 
L 2766 531 
Q 2569 213 2275 61 
Q 1981 -91 1556 -91 
Q 1019 -91 701 211 
Q 384 513 384 1019 
Q 384 1609 779 1909 
Q 1175 2209 1959 2209 
L 2766 2209 
L 2766 2266 
Q 2766 2663 2505 2880 
Q 2244 3097 1772 3097 
Q 1472 3097 1187 3025 
Q 903 2953 641 2809 
L 641 3341 
Q 956 3463 1253 3523 
Q 1550 3584 1831 3584 
Q 2591 3584 2966 3190 
Q 3341 2797 3341 1997 
z
" transform="scale(0.015625)"/>
       <path id="DejaVuSans-69" d="M 603 3500 
L 1178 3500 
L 1178 0 
L 603 0 
L 603 3500 
z
M 603 4863 
L 1178 4863 
L 1178 4134 
L 603 4134 
L 603 4863 
z
" transform="scale(0.015625)"/>
       <path id="DejaVuSans-6e" d="M 3513 2113 
L 3513 0 
L 2938 0 
L 2938 2094 
Q 2938 2591 2744 2837 
Q 2550 3084 2163 3084 
Q 1697 3084 1428 2787 
Q 1159 2491 1159 1978 
L 1159 0 
L 581 0 
L 581 3500 
L 1159 3500 
L 1159 2956 
Q 1366 3272 1645 3428 
Q 1925 3584 2291 3584 
Q 2894 3584 3203 3211 
Q 3513 2838 3513 2113 
z
" transform="scale(0.015625)"/>
       <path id="DejaVuSans-67" d="M 2906 1791 
Q 2906 2416 2648 2759 
Q 2391 3103 1925 3103 
Q 1463 3103 1205 2759 
Q 947 2416 947 1791 
Q 947 1169 1205 825 
Q 1463 481 1925 481 
Q 2391 481 2648 825 
Q 2906 1169 2906 1791 
z
M 3481 434 
Q 3481 -459 3084 -895 
Q 2688 -1331 1869 -1331 
Q 1566 -1331 1297 -1286 
Q 1028 -1241 775 -1147 
L 775 -588 
Q 1028 -725 1275 -790 
Q 1522 -856 1778 -856 
Q 2344 -856 2625 -561 
Q 2906 -266 2906 331 
L 2906 616 
Q 2728 306 2450 153 
Q 2172 0 1784 0 
Q 1141 0 747 490 
Q 353 981 353 1791 
Q 353 2603 747 3093 
Q 1141 3584 1784 3584 
Q 2172 3584 2450 3431 
Q 2728 3278 2906 2969 
L 2906 3500 
L 3481 3500 
L 3481 434 
z
" transform="scale(0.015625)"/>
       <path id="DejaVuSans-20" transform="scale(0.015625)"/>
       <path id="DejaVuSans-53" d="M 3425 4513 
L 3425 3897 
Q 3066 4069 2747 4153 
Q 2428 4238 2131 4238 
Q 1616 4238 1336 4038 
Q 1056 3838 1056 3469 
Q 1056 3159 1242 3001 
Q 1428 2844 1947 2747 
L 2328 2669 
Q 3034 2534 3370 2195 
Q 3706 1856 3706 1288 
Q 3706 609 3251 259 
Q 2797 -91 1919 -91 
Q 1588 -91 1214 -16 
Q 841 59 441 206 
L 441 856 
Q 825 641 1194 531 
Q 1563 422 1919 422 
Q 2459 422 2753 634 
Q 3047 847 3047 1241 
Q 3047 1584 2836 1778 
Q 2625 1972 2144 2069 
L 1759 2144 
Q 1053 2284 737 2584 
Q 422 2884 422 3419 
Q 422 4038 858 4394 
Q 1294 4750 2059 4750 
Q 2388 4750 2728 4690 
Q 3069 4631 3425 4513 
z
" transform="scale(0.015625)"/>
       <path id="DejaVuSans-74" d="M 1172 4494 
L 1172 3500 
L 2356 3500 
L 2356 3053 
L 1172 3053 
L 1172 1153 
Q 1172 725 1289 603 
Q 1406 481 1766 481 
L 2356 481 
L 2356 0 
L 1766 0 
Q 1100 0 847 248 
Q 594 497 594 1153 
L 594 3053 
L 172 3053 
L 172 3500 
L 594 3500 
L 594 4494 
L 1172 4494 
z
" transform="scale(0.015625)"/>
       <path id="DejaVuSans-65" d="M 3597 1894 
L 3597 1613 
L 953 1613 
Q 991 1019 1311 708 
Q 1631 397 2203 397 
Q 2534 397 2845 478 
Q 3156 559 3463 722 
L 3463 178 
Q 3153 47 2828 -22 
Q 2503 -91 2169 -91 
Q 1331 -91 842 396 
Q 353 884 353 1716 
Q 353 2575 817 3079 
Q 1281 3584 2069 3584 
Q 2775 3584 3186 3129 
Q 3597 2675 3597 1894 
z
M 3022 2063 
Q 3016 2534 2758 2815 
Q 2500 3097 2075 3097 
Q 1594 3097 1305 2825 
Q 1016 2553 972 2059 
L 3022 2063 
z
" transform="scale(0.015625)"/>
       <path id="DejaVuSans-70" d="M 1159 525 
L 1159 -1331 
L 581 -1331 
L 581 3500 
L 1159 3500 
L 1159 2969 
Q 1341 3281 1617 3432 
Q 1894 3584 2278 3584 
Q 2916 3584 3314 3078 
Q 3713 2572 3713 1747 
Q 3713 922 3314 415 
Q 2916 -91 2278 -91 
Q 1894 -91 1617 61 
Q 1341 213 1159 525 
z
M 3116 1747 
Q 3116 2381 2855 2742 
Q 2594 3103 2138 3103 
Q 1681 3103 1420 2742 
Q 1159 2381 1159 1747 
Q 1159 1113 1420 752 
Q 1681 391 2138 391 
Q 2594 391 2855 752 
Q 3116 1113 3116 1747 
z
" transform="scale(0.015625)"/>
      </defs>
      <use xlink:href="#DejaVuSans-54"/>
      <use xlink:href="#DejaVuSans-72" x="46.333984"/>
      <use xlink:href="#DejaVuSans-61" x="87.447266"/>
      <use xlink:href="#DejaVuSans-69" x="148.726562"/>
      <use xlink:href="#DejaVuSans-6e" x="176.509766"/>
      <use xlink:href="#DejaVuSans-69" x="239.888672"/>
      <use xlink:href="#DejaVuSans-6e" x="267.671875"/>
      <use xlink:href="#DejaVuSans-67" x="331.050781"/>
      <use xlink:href="#DejaVuSans-20" x="394.527344"/>
      <use xlink:href="#DejaVuSans-53" x="426.314453"/>
      <use xlink:href="#DejaVuSans-74" x="489.791016"/>
      <use xlink:href="#DejaVuSans-65" x="529"/>
      <use xlink:href="#DejaVuSans-70" x="590.523438"/>
     </g>
    </g>
   </g>
   <g id="matplotlib.axis_2">
    <g id="ytick_1">
     <g id="line2d_6">
      <defs>
       <path id="m8bdd44dfef" d="M 0 0 
L -3.5 0 
" style="stroke: #000000; stroke-width: 0.8"/>
      </defs>
      <g>
       <use xlink:href="#m8bdd44dfef" x="57.6" y="293.550447" style="stroke: #000000; stroke-width: 0.8"/>
      </g>
     </g>
     <g id="text_7">
      <!-- 4.05 -->
      <g transform="translate(28.334375 297.349665) scale(0.1 -0.1)">
       <defs>
        <path id="DejaVuSans-2e" d="M 684 794 
L 1344 794 
L 1344 0 
L 684 0 
L 684 794 
z
" transform="scale(0.015625)"/>
        <path id="DejaVuSans-35" d="M 691 4666 
L 3169 4666 
L 3169 4134 
L 1269 4134 
L 1269 2991 
Q 1406 3038 1543 3061 
Q 1681 3084 1819 3084 
Q 2600 3084 3056 2656 
Q 3513 2228 3513 1497 
Q 3513 744 3044 326 
Q 2575 -91 1722 -91 
Q 1428 -91 1123 -41 
Q 819 9 494 109 
L 494 744 
Q 775 591 1075 516 
Q 1375 441 1709 441 
Q 2250 441 2565 725 
Q 2881 1009 2881 1497 
Q 2881 1984 2565 2268 
Q 2250 2553 1709 2553 
Q 1456 2553 1204 2497 
Q 953 2441 691 2322 
L 691 4666 
z
" transform="scale(0.015625)"/>
       </defs>
       <use xlink:href="#DejaVuSans-34"/>
       <use xlink:href="#DejaVuSans-2e" x="63.623047"/>
       <use xlink:href="#DejaVuSans-30" x="95.410156"/>
       <use xlink:href="#DejaVuSans-35" x="159.033203"/>
      </g>
     </g>
    </g>
    <g id="ytick_2">
     <g id="line2d_7">
      <g>
       <use xlink:href="#m8bdd44dfef" x="57.6" y="251.149748" style="stroke: #000000; stroke-width: 0.8"/>
      </g>
     </g>
     <g id="text_8">
      <!-- 4.10 -->
      <g transform="translate(28.334375 254.948967) scale(0.1 -0.1)">
       <use xlink:href="#DejaVuSans-34"/>
       <use xlink:href="#DejaVuSans-2e" x="63.623047"/>
       <use xlink:href="#DejaVuSans-31" x="95.410156"/>
       <use xlink:href="#DejaVuSans-30" x="159.033203"/>
      </g>
     </g>
    </g>
    <g id="ytick_3">
     <g id="line2d_8">
      <g>
       <use xlink:href="#m8bdd44dfef" x="57.6" y="208.74905" style="stroke: #000000; stroke-width: 0.8"/>
      </g>
     </g>
     <g id="text_9">
      <!-- 4.15 -->
      <g transform="translate(28.334375 212.548269) scale(0.1 -0.1)">
       <use xlink:href="#DejaVuSans-34"/>
       <use xlink:href="#DejaVuSans-2e" x="63.623047"/>
       <use xlink:href="#DejaVuSans-31" x="95.410156"/>
       <use xlink:href="#DejaVuSans-35" x="159.033203"/>
      </g>
     </g>
    </g>
    <g id="ytick_4">
     <g id="line2d_9">
      <g>
       <use xlink:href="#m8bdd44dfef" x="57.6" y="166.348352" style="stroke: #000000; stroke-width: 0.8"/>
      </g>
     </g>
     <g id="text_10">
      <!-- 4.20 -->
      <g transform="translate(28.334375 170.14757) scale(0.1 -0.1)">
       <use xlink:href="#DejaVuSans-34"/>
       <use xlink:href="#DejaVuSans-2e" x="63.623047"/>
       <use xlink:href="#DejaVuSans-32" x="95.410156"/>
       <use xlink:href="#DejaVuSans-30" x="159.033203"/>
      </g>
     </g>
    </g>
    <g id="ytick_5">
     <g id="line2d_10">
      <g>
       <use xlink:href="#m8bdd44dfef" x="57.6" y="123.947653" style="stroke: #000000; stroke-width: 0.8"/>
      </g>
     </g>
     <g id="text_11">
      <!-- 4.25 -->
      <g transform="translate(28.334375 127.746872) scale(0.1 -0.1)">
       <use xlink:href="#DejaVuSans-34"/>
       <use xlink:href="#DejaVuSans-2e" x="63.623047"/>
       <use xlink:href="#DejaVuSans-32" x="95.410156"/>
       <use xlink:href="#DejaVuSans-35" x="159.033203"/>
      </g>
     </g>
    </g>
    <g id="ytick_6">
     <g id="line2d_11">
      <g>
       <use xlink:href="#m8bdd44dfef" x="57.6" y="81.546955" style="stroke: #000000; stroke-width: 0.8"/>
      </g>
     </g>
     <g id="text_12">
      <!-- 4.30 -->
      <g transform="translate(28.334375 85.346174) scale(0.1 -0.1)">
       <use xlink:href="#DejaVuSans-34"/>
       <use xlink:href="#DejaVuSans-2e" x="63.623047"/>
       <use xlink:href="#DejaVuSans-33" x="95.410156"/>
       <use xlink:href="#DejaVuSans-30" x="159.033203"/>
      </g>
     </g>
    </g>
    <g id="text_13">
     <!-- Loss Value -->
     <g transform="translate(22.254687 200.8155) rotate(-90) scale(0.1 -0.1)">
      <defs>
       <path id="DejaVuSans-4c" d="M 628 4666 
L 1259 4666 
L 1259 531 
L 3531 531 
L 3531 0 
L 628 0 
L 628 4666 
z
" transform="scale(0.015625)"/>
       <path id="DejaVuSans-6f" d="M 1959 3097 
Q 1497 3097 1228 2736 
Q 959 2375 959 1747 
Q 959 1119 1226 758 
Q 1494 397 1959 397 
Q 2419 397 2687 759 
Q 2956 1122 2956 1747 
Q 2956 2369 2687 2733 
Q 2419 3097 1959 3097 
z
M 1959 3584 
Q 2709 3584 3137 3096 
Q 3566 2609 3566 1747 
Q 3566 888 3137 398 
Q 2709 -91 1959 -91 
Q 1206 -91 779 398 
Q 353 888 353 1747 
Q 353 2609 779 3096 
Q 1206 3584 1959 3584 
z
" transform="scale(0.015625)"/>
       <path id="DejaVuSans-73" d="M 2834 3397 
L 2834 2853 
Q 2591 2978 2328 3040 
Q 2066 3103 1784 3103 
Q 1356 3103 1142 2972 
Q 928 2841 928 2578 
Q 928 2378 1081 2264 
Q 1234 2150 1697 2047 
L 1894 2003 
Q 2506 1872 2764 1633 
Q 3022 1394 3022 966 
Q 3022 478 2636 193 
Q 2250 -91 1575 -91 
Q 1294 -91 989 -36 
Q 684 19 347 128 
L 347 722 
Q 666 556 975 473 
Q 1284 391 1588 391 
Q 1994 391 2212 530 
Q 2431 669 2431 922 
Q 2431 1156 2273 1281 
Q 2116 1406 1581 1522 
L 1381 1569 
Q 847 1681 609 1914 
Q 372 2147 372 2553 
Q 372 3047 722 3315 
Q 1072 3584 1716 3584 
Q 2034 3584 2315 3537 
Q 2597 3491 2834 3397 
z
" transform="scale(0.015625)"/>
       <path id="DejaVuSans-56" d="M 1831 0 
L 50 4666 
L 709 4666 
L 2188 738 
L 3669 4666 
L 4325 4666 
L 2547 0 
L 1831 0 
z
" transform="scale(0.015625)"/>
       <path id="DejaVuSans-6c" d="M 603 4863 
L 1178 4863 
L 1178 0 
L 603 0 
L 603 4863 
z
" transform="scale(0.015625)"/>
       <path id="DejaVuSans-75" d="M 544 1381 
L 544 3500 
L 1119 3500 
L 1119 1403 
Q 1119 906 1312 657 
Q 1506 409 1894 409 
Q 2359 409 2629 706 
Q 2900 1003 2900 1516 
L 2900 3500 
L 3475 3500 
L 3475 0 
L 2900 0 
L 2900 538 
Q 2691 219 2414 64 
Q 2138 -91 1772 -91 
Q 1169 -91 856 284 
Q 544 659 544 1381 
z
M 1991 3584 
L 1991 3584 
z
" transform="scale(0.015625)"/>
      </defs>
      <use xlink:href="#DejaVuSans-4c"/>
      <use xlink:href="#DejaVuSans-6f" x="53.962891"/>
      <use xlink:href="#DejaVuSans-73" x="115.144531"/>
      <use xlink:href="#DejaVuSans-73" x="167.244141"/>
      <use xlink:href="#DejaVuSans-20" x="219.34375"/>
      <use xlink:href="#DejaVuSans-56" x="251.130859"/>
      <use xlink:href="#DejaVuSans-61" x="311.789062"/>
      <use xlink:href="#DejaVuSans-6c" x="373.068359"/>
      <use xlink:href="#DejaVuSans-75" x="400.851562"/>
      <use xlink:href="#DejaVuSans-65" x="464.230469"/>
     </g>
    </g>
   </g>
   <g id="line2d_12">
    <path d="M 73.832727 55.666652 
L 74.532414 53.687288 
L 75.2321 55.029374 
L 75.931787 53.568 
L 76.631473 53.862377 
L 77.33116 54.987724 
L 78.030846 54.945266 
L 78.730533 56.685651 
L 79.430219 54.175356 
L 80.129906 55.033822 
L 80.829592 55.498032 
L 81.529279 55.670696 
L 82.228966 55.127634 
L 82.928652 56.276838 
L 83.628339 56.326171 
L 85.027712 58.503674 
L 85.727398 56.805343 
L 86.427085 58.06696 
L 87.126771 58.819078 
L 87.826458 58.138533 
L 88.526144 60.16076 
L 89.225831 58.450298 
L 89.925517 59.580497 
L 90.625204 60.04956 
L 91.32489 59.694123 
L 92.024577 60.767711 
L 92.724263 60.417531 
L 93.42395 61.725246 
L 94.123636 61.456748 
L 94.823323 62.233128 
L 95.523009 61.234752 
L 96.222696 61.912467 
L 96.922382 62.00628 
L 97.622069 62.464829 
L 98.321755 61.894271 
L 99.021442 63.128796 
L 99.721129 62.820266 
L 100.420815 63.892236 
L 101.120502 64.009502 
L 101.820188 65.290529 
L 102.519875 64.07137 
L 103.219561 67.090356 
L 103.919248 66.136864 
L 104.618934 64.846132 
L 105.318621 66.689226 
L 106.018307 67.812146 
L 106.717994 68.509271 
L 107.41768 68.645137 
L 108.117367 67.205195 
L 108.817053 67.09723 
L 109.51674 67.649592 
L 110.216426 67.46965 
L 110.916113 68.455086 
L 111.615799 68.091967 
L 112.315486 69.759162 
L 113.015172 69.222974 
L 113.714859 69.576793 
L 114.414545 71.402095 
L 115.114232 70.762795 
L 115.813918 70.690413 
L 116.513605 71.556158 
L 117.213292 71.423931 
L 118.612665 72.295336 
L 119.312351 72.396023 
L 120.012038 73.305843 
L 120.711724 75.703321 
L 121.411411 72.750651 
L 122.810784 73.309887 
L 123.51047 74.254483 
L 124.210157 74.864264 
L 124.909843 76.328873 
L 125.60953 74.220516 
L 126.309216 75.46515 
L 127.008903 74.863456 
L 127.708589 76.816132 
L 129.107962 77.375368 
L 129.807649 77.015484 
L 130.507335 77.519322 
L 131.207022 77.151755 
L 131.906708 77.449367 
L 132.606395 78.10646 
L 133.306082 80.21239 
L 134.005768 80.387884 
L 134.705455 80.416594 
L 135.405141 78.757082 
L 136.104828 81.140407 
L 136.804514 80.055092 
L 137.504201 81.411331 
L 138.203887 79.478064 
L 138.903574 80.888083 
L 139.60326 82.556087 
L 141.002633 82.302551 
L 141.70232 84.343379 
L 142.402006 83.269791 
L 143.101693 85.286761 
L 143.801379 85.164239 
L 144.501066 84.075689 
L 145.200752 85.037673 
L 145.900439 85.103988 
L 147.299812 87.28877 
L 147.999498 85.450125 
L 148.699185 83.175574 
L 149.398871 87.865798 
L 150.098558 85.829014 
L 150.798245 86.015022 
L 151.497931 85.58963 
L 152.197618 87.444046 
L 152.897304 88.884393 
L 153.596991 89.723449 
L 154.296677 88.937365 
L 154.996364 88.848404 
L 155.69605 90.186851 
L 156.395737 86.731151 
L 157.095423 90.224861 
L 157.79511 90.876293 
L 158.494796 91.265696 
L 159.194483 90.187255 
L 159.894169 88.892076 
L 160.593856 91.060279 
L 161.293542 88.543918 
L 161.993229 91.509932 
L 162.692915 90.909451 
L 163.392602 93.809553 
L 164.092288 92.319065 
L 164.791975 92.155298 
L 165.491661 94.150433 
L 166.191348 93.532564 
L 166.891034 94.885567 
L 167.590721 94.420953 
L 168.290408 93.555612 
L 168.990094 97.760195 
L 169.689781 95.633237 
L 170.389467 96.716935 
L 171.089154 96.417705 
L 171.78884 97.156074 
L 172.488527 98.133424 
L 173.188213 96.765458 
L 173.8879 98.140298 
L 174.587586 99.111582 
L 175.287273 96.700356 
L 175.986959 101.015734 
L 176.686646 99.445991 
L 177.386332 97.040022 
L 178.086019 96.280625 
L 178.785705 98.407987 
L 179.485392 98.800625 
L 180.185078 99.805067 
L 180.884765 99.339643 
L 182.284138 99.054566 
L 182.983824 100.218327 
L 183.683511 98.593995 
L 184.383197 100.520388 
L 185.082884 100.926774 
L 185.782571 102.259155 
L 186.482257 101.515933 
L 187.181944 101.910593 
L 187.88163 100.743193 
L 188.581317 101.775535 
L 189.281003 104.183931 
L 189.98069 104.149964 
L 190.680376 103.902897 
L 191.380063 102.998738 
L 192.079749 103.029874 
L 192.779436 105.454444 
L 193.479122 104.267634 
L 194.178809 104.398244 
L 194.878495 106.84748 
L 195.578182 102.699104 
L 196.277868 104.51834 
L 196.977555 107.765388 
L 197.677241 105.704341 
L 198.376928 105.222743 
L 199.076614 106.270047 
L 199.776301 106.655811 
L 200.475987 109.630721 
L 201.175674 107.924303 
L 201.875361 106.534906 
L 202.575047 106.991838 
L 203.274734 107.964335 
L 203.97442 108.284592 
L 204.674107 105.784406 
L 204.674107 105.784406 
" clip-path="url(#p5a56957cab)" style="fill: none; stroke: #1f77b4; stroke-width: 1.5; stroke-linecap: square"/>
   </g>
   <g id="line2d_13">
    <path d="M 73.832727 55.489136 
L 76.631473 55.560304 
L 82.228966 55.72852 
L 98.321755 56.725279 
L 103.919248 57.288963 
L 104.618934 57.337487 
L 105.318621 57.59628 
L 106.018307 57.555035 
L 108.817053 58.046338 
L 109.51674 58.028546 
L 110.216426 58.285317 
L 110.916113 58.346376 
L 111.615799 58.524297 
L 113.714859 58.709091 
L 116.513605 59.337878 
L 117.213292 59.337878 
L 117.912978 59.663392 
L 119.312351 59.794001 
L 120.012038 60.197153 
L 120.711724 60.057647 
L 122.111097 60.651659 
L 122.810784 60.643571 
L 123.51047 60.867589 
L 124.210157 61.245266 
L 124.909843 61.38922 
L 125.60953 61.405798 
L 126.309216 61.823911 
L 129.107962 62.364142 
L 129.807649 62.886986 
L 131.207022 63.010721 
L 131.906708 63.525478 
L 132.606395 63.565914 
L 133.306082 63.915689 
L 134.005768 64.102506 
L 134.705455 64.534772 
L 135.405141 64.698539 
L 136.804514 65.243623 
L 137.504201 65.320856 
L 138.203887 65.696107 
L 138.903574 66.602288 
L 139.60326 66.256151 
L 140.302947 66.968642 
L 141.002633 66.770503 
L 142.402006 67.387968 
L 143.101693 67.444983 
L 143.801379 67.075394 
L 144.501066 68.311132 
L 145.200752 68.787069 
L 145.900439 69.010279 
L 146.600125 68.830741 
L 147.299812 69.110965 
L 148.699185 70.465182 
L 149.398871 70.593366 
L 150.098558 71.297769 
L 152.897304 71.557775 
L 154.296677 72.997313 
L 154.996364 72.680696 
L 155.69605 74.037743 
L 156.395737 73.558976 
L 157.095423 74.288854 
L 158.494796 74.332121 
L 159.194483 75.229001 
L 159.894169 75.732031 
L 160.593856 75.803199 
L 162.692915 77.474438 
L 163.392602 76.462718 
L 164.092288 78.149727 
L 164.791975 78.382236 
L 165.491661 78.446126 
L 166.191348 79.480895 
L 166.891034 79.609078 
L 167.590721 79.178026 
L 168.290408 79.838757 
L 168.990094 80.829046 
L 169.689781 81.19904 
L 170.389467 81.114528 
L 171.089154 82.770805 
L 171.78884 82.74533 
L 172.488527 83.414553 
L 173.188213 82.867044 
L 173.8879 84.479245 
L 174.587586 84.171928 
L 175.287273 84.820125 
L 175.986959 85.042525 
L 177.386332 83.530202 
L 178.086019 87.374496 
L 178.785705 86.834264 
L 179.485392 86.589624 
L 180.185078 86.857313 
L 180.884765 89.010555 
L 181.584451 89.044521 
L 182.284138 88.091838 
L 182.983824 90.144393 
L 183.683511 89.697166 
L 184.383197 89.526524 
L 185.082884 89.789765 
L 185.782571 91.890439 
L 186.482257 92.438353 
L 187.181944 90.877506 
L 187.88163 92.858892 
L 188.581317 92.397108 
L 189.281003 93.315824 
L 189.98069 92.384168 
L 190.680376 95.438738 
L 191.380063 95.101902 
L 192.079749 96.681755 
L 192.779436 94.890824 
L 193.479122 96.272134 
L 194.178809 95.259605 
L 194.878495 97.431447 
L 195.578182 95.872217 
L 196.277868 97.555182 
L 196.977555 98.882711 
L 197.677241 99.511902 
L 198.376928 100.676472 
L 199.076614 100.116023 
L 199.776301 100.223584 
L 200.475987 102.384104 
L 201.175674 101.051318 
L 201.875361 102.718513 
L 202.575047 102.689399 
L 203.274734 103.4492 
L 203.97442 103.421299 
L 204.674107 103.686967 
L 205.373793 105.005599 
L 206.07348 105.999123 
L 206.773166 103.758135 
L 207.472853 105.953026 
L 208.172539 107.69422 
L 208.872226 108.206145 
L 209.571912 106.629528 
L 210.271599 107.806633 
L 210.971285 109.208565 
L 211.670972 107.773879 
L 212.370658 108.965946 
L 213.070345 108.431376 
L 213.770031 110.686517 
L 214.469718 111.666697 
L 215.169404 110.71361 
L 215.869091 111.265567 
L 216.568777 112.367461 
L 217.268464 112.027795 
L 217.96815 112.936806 
L 218.667837 112.85472 
L 219.367524 114.075497 
L 220.06721 114.477435 
L 220.766897 113.388077 
L 222.16627 118.606806 
L 222.865956 114.947711 
L 223.565643 119.20567 
L 224.265329 117.146241 
L 224.965016 116.677178 
L 225.664702 119.403404 
L 226.364389 120.760452 
L 227.064075 117.093674 
L 227.763762 119.746306 
L 228.463448 120.240035 
L 229.163135 120.474162 
L 229.862821 123.238398 
L 230.562508 121.4042 
L 231.262194 122.479406 
L 231.961881 123.865567 
L 232.661567 124.348783 
L 233.361254 123.573616 
L 234.06094 126.137288 
L 234.760627 125.618488 
L 235.460313 124.757596 
L 236.16 130.31033 
L 236.859687 127.582891 
L 237.559373 125.324919 
L 238.25906 123.856267 
L 238.958746 128.361697 
L 239.658433 129.058013 
L 240.358119 127.563886 
L 241.057806 126.657705 
L 241.757492 131.047082 
L 242.457179 130.842069 
L 243.156865 131.510888 
L 243.856552 132.756331 
L 244.556238 131.440125 
L 245.255925 137.451408 
L 245.955611 136.296543 
L 246.655298 137.044617 
L 247.354984 135.091132 
L 248.054671 134.729226 
L 248.754357 138.500734 
L 249.454044 137.32929 
L 250.15373 138.983546 
L 250.853417 139.243552 
L 251.553103 141.819354 
L 252.25279 139.111729 
L 252.952476 139.82705 
L 254.35185 143.173167 
L 255.051536 142.474829 
L 255.751223 141.243944 
L 256.450909 142.033263 
L 257.150596 145.165067 
L 257.850282 142.504752 
L 258.549969 145.977031 
L 259.249655 146.36603 
L 259.949342 144.206318 
L 260.649028 147.76594 
L 262.048401 146.284752 
L 262.748088 146.757859 
L 263.447774 153.794207 
L 264.147461 148.885221 
L 264.847147 153.741235 
L 265.546834 150.863372 
L 266.24652 152.300888 
L 266.946207 148.731562 
L 267.645893 152.031177 
L 268.34558 149.698398 
L 269.744953 159.409617 
L 270.444639 155.540657 
L 271.144326 157.09463 
L 271.844013 157.968866 
L 272.543699 155.681376 
L 273.243386 161.6223 
L 273.943072 161.197313 
L 274.642759 161.729053 
L 275.342445 157.300856 
L 276.042132 163.014528 
L 276.741818 164.287467 
L 277.441505 159.650214 
L 278.141191 167.575356 
L 278.840878 164.095798 
L 279.540564 163.44275 
L 280.240251 165.562429 
L 280.939937 163.047281 
L 281.639624 165.029072 
L 282.33931 169.686139 
L 283.038997 172.477467 
L 283.738683 168.099816 
L 284.43837 170.718077 
L 285.138056 167.424123 
L 285.837743 174.867262 
L 286.537429 170.557949 
L 287.237116 169.813918 
L 287.936803 169.718083 
L 288.636489 174.473815 
L 290.035862 172.822795 
L 290.735549 172.551466 
L 291.435235 176.488764 
L 292.134922 174.660632 
L 292.834608 178.82963 
L 293.534295 179.48551 
L 294.233981 181.487519 
L 294.933668 177.019694 
L 295.633354 182.761267 
L 296.333041 182.226293 
L 297.032727 181.25784 
L 297.732414 186.73051 
L 298.4321 180.079117 
L 299.131787 186.289752 
L 299.831473 187.533578 
L 300.53116 184.132467 
L 301.230846 188.299849 
L 301.930533 184.850619 
L 302.630219 188.25739 
L 303.329906 189.546504 
L 304.029592 193.195895 
L 304.729279 185.147422 
L 305.428966 195.430413 
L 306.828339 185.045522 
L 307.528025 193.408995 
L 308.227712 193.524643 
L 308.927398 201.045824 
L 309.627085 193.489868 
L 310.326771 197.91119 
L 311.026458 196.118237 
L 312.425831 197.689194 
L 313.125517 189.262236 
L 313.825204 203.579977 
L 314.52489 203.101614 
L 315.224577 199.637422 
L 315.924263 201.970202 
L 316.62395 198.391171 
L 317.323636 202.133969 
L 318.023323 206.510003 
L 318.723009 207.258886 
L 319.422696 203.780542 
L 320.122382 201.621639 
L 320.822069 206.034065 
L 321.521755 215.759438 
L 322.221442 207.059938 
L 322.921129 208.070445 
L 323.620815 206.723103 
L 324.320502 211.441228 
L 325.020188 210.640182 
L 325.719875 220.095035 
L 326.419561 213.067178 
L 327.119248 208.441652 
L 327.818934 216.662384 
L 328.518621 206.655169 
L 329.218307 215.099515 
L 329.917994 214.941813 
L 330.61768 205.903456 
L 331.317367 216.796633 
L 332.017053 218.742031 
L 333.416426 216.345766 
L 334.116113 220.583507 
L 334.815799 226.927178 
L 335.515486 220.735953 
L 336.215172 222.499791 
L 336.914859 229.794528 
L 337.614545 221.243026 
L 338.314232 230.997512 
L 339.013918 233.107082 
L 339.713605 232.176639 
L 340.413292 224.55275 
L 341.112978 227.949008 
L 341.812665 233.967166 
L 342.512351 230.316562 
L 343.212038 230.17827 
L 343.911724 236.899617 
L 344.611411 240.416376 
L 345.311097 242.916562 
L 346.71047 231.014496 
L 347.410157 235.728173 
L 348.109843 233.364662 
L 348.80953 237.429739 
L 349.509216 244.200015 
L 350.208903 234.365869 
L 350.908589 240.955798 
L 351.608276 240.206511 
L 352.307962 247.701004 
L 353.007649 246.261466 
L 353.707335 242.675157 
L 354.407022 245.814239 
L 355.106708 252.950465 
L 355.806395 241.787981 
L 356.506082 244.740246 
L 357.205768 249.867589 
L 357.905455 248.867596 
L 358.605141 248.277628 
L 359.304828 250.920555 
L 360.004514 261.182923 
L 360.704201 252.702589 
L 361.403887 249.816639 
L 362.103574 253.449451 
L 362.80326 255.526671 
L 363.502947 248.848186 
L 364.202633 256.674258 
L 364.90232 256.588937 
L 365.602006 250.566331 
L 366.301693 254.773745 
L 367.001379 257.160304 
L 367.701066 253.787095 
L 368.400752 263.643077 
L 369.100439 269.234226 
L 369.800125 257.865516 
L 370.499812 262.366902 
L 371.199498 269.691967 
L 371.899185 253.976742 
L 372.598871 272.978237 
L 373.298558 260.464367 
L 374.697931 269.844008 
L 375.397618 270.624027 
L 376.097304 270.372108 
L 376.796991 267.678231 
L 377.496677 266.379412 
L 378.196364 267.79024 
L 379.595737 275.788571 
L 380.295423 276.226094 
L 380.99511 280.207063 
L 381.694796 268.524566 
L 382.394483 279.206665 
L 383.094169 280.508719 
L 383.793856 270.95601 
L 384.493542 283.408822 
L 385.193229 269.207942 
L 385.892915 284.175497 
L 386.592602 287.069534 
L 387.292288 281.148019 
L 387.991975 288.983796 
L 388.691661 290.622685 
L 389.391348 275.863783 
L 390.091034 278.29644 
L 390.790721 287.86775 
L 391.490408 286.378879 
L 392.190094 290.047275 
L 392.889781 292.823237 
L 393.589467 280.688257 
L 394.289154 287.065895 
L 394.98884 291.75895 
L 395.688527 289.735105 
L 396.388213 291.029072 
L 397.0879 295.488 
L 397.787586 290.422525 
L 398.487273 287.754123 
L 398.487273 287.754123 
" clip-path="url(#p5a56957cab)" style="fill: none; stroke: #ff7f0e; stroke-width: 1.5; stroke-linecap: square"/>
   </g>
   <g id="patch_3">
    <path d="M 57.6 307.584 
L 57.6 41.472 
" style="fill: none; stroke: #000000; stroke-width: 0.8; stroke-linejoin: miter; stroke-linecap: square"/>
   </g>
   <g id="patch_4">
    <path d="M 414.72 307.584 
L 414.72 41.472 
" style="fill: none; stroke: #000000; stroke-width: 0.8; stroke-linejoin: miter; stroke-linecap: square"/>
   </g>
   <g id="patch_5">
    <path d="M 57.6 307.584 
L 414.72 307.584 
" style="fill: none; stroke: #000000; stroke-width: 0.8; stroke-linejoin: miter; stroke-linecap: square"/>
   </g>
   <g id="patch_6">
    <path d="M 57.6 41.472 
L 414.72 41.472 
" style="fill: none; stroke: #000000; stroke-width: 0.8; stroke-linejoin: miter; stroke-linecap: square"/>
   </g>
   <g id="legend_1">
    <g id="patch_7">
     <path d="M 340.643438 78.82825 
L 407.72 78.82825 
Q 409.72 78.82825 409.72 76.82825 
L 409.72 48.472 
Q 409.72 46.472 407.72 46.472 
L 340.643438 46.472 
Q 338.643438 46.472 338.643438 48.472 
L 338.643438 76.82825 
Q 338.643438 78.82825 340.643438 78.82825 
z
" style="fill: #ffffff; opacity: 0.8; stroke: #cccccc; stroke-linejoin: miter"/>
    </g>
    <g id="line2d_14">
     <path d="M 342.643438 54.570437 
L 352.643438 54.570437 
L 362.643438 54.570437 
" style="fill: none; stroke: #1f77b4; stroke-width: 1.5; stroke-linecap: square"/>
    </g>
    <g id="text_14">
     <!-- Run 12 -->
     <g transform="translate(370.643438 58.070437) scale(0.1 -0.1)">
      <defs>
       <path id="DejaVuSans-52" d="M 2841 2188 
Q 3044 2119 3236 1894 
Q 3428 1669 3622 1275 
L 4263 0 
L 3584 0 
L 2988 1197 
Q 2756 1666 2539 1819 
Q 2322 1972 1947 1972 
L 1259 1972 
L 1259 0 
L 628 0 
L 628 4666 
L 2053 4666 
Q 2853 4666 3247 4331 
Q 3641 3997 3641 3322 
Q 3641 2881 3436 2590 
Q 3231 2300 2841 2188 
z
M 1259 4147 
L 1259 2491 
L 2053 2491 
Q 2509 2491 2742 2702 
Q 2975 2913 2975 3322 
Q 2975 3731 2742 3939 
Q 2509 4147 2053 4147 
L 1259 4147 
z
" transform="scale(0.015625)"/>
      </defs>
      <use xlink:href="#DejaVuSans-52"/>
      <use xlink:href="#DejaVuSans-75" x="64.982422"/>
      <use xlink:href="#DejaVuSans-6e" x="128.361328"/>
      <use xlink:href="#DejaVuSans-20" x="191.740234"/>
      <use xlink:href="#DejaVuSans-31" x="223.527344"/>
      <use xlink:href="#DejaVuSans-32" x="287.150391"/>
     </g>
    </g>
    <g id="line2d_15">
     <path d="M 342.643438 69.248562 
L 352.643438 69.248562 
L 362.643438 69.248562 
" style="fill: none; stroke: #ff7f0e; stroke-width: 1.5; stroke-linecap: square"/>
    </g>
    <g id="text_15">
     <!-- Run 11 -->
     <g transform="translate(370.643438 72.748562) scale(0.1 -0.1)">
      <use xlink:href="#DejaVuSans-52"/>
      <use xlink:href="#DejaVuSans-75" x="64.982422"/>
      <use xlink:href="#DejaVuSans-6e" x="128.361328"/>
      <use xlink:href="#DejaVuSans-20" x="191.740234"/>
      <use xlink:href="#DejaVuSans-31" x="223.527344"/>
      <use xlink:href="#DejaVuSans-31" x="287.150391"/>
     </g>
    </g>
   </g>
  </g>
 </g>
 <defs>
  <clipPath id="p5a56957cab">
   <rect x="57.6" y="41.472" width="357.12" height="266.112"/>
  </clipPath>
 </defs>
</svg>
