<?xml version="1.0" encoding="utf-8" standalone="no"?>
<!DOCTYPE svg PUBLIC "-//W3C//DTD SVG 1.1//EN"
  "http://www.w3.org/Graphics/SVG/1.1/DTD/svg11.dtd">
<svg xmlns:xlink="http://www.w3.org/1999/xlink" width="460.8pt" height="345.6pt" viewBox="0 0 460.8 345.6" xmlns="http://www.w3.org/2000/svg" version="1.1">
 <metadata>
  <rdf:RDF xmlns:dc="http://purl.org/dc/elements/1.1/" xmlns:cc="http://creativecommons.org/ns#" xmlns:rdf="http://www.w3.org/1999/02/22-rdf-syntax-ns#">
   <cc:Work>
    <dc:type rdf:resource="http://purl.org/dc/dcmitype/StillImage"/>
    <dc:date>2024-10-23T13:58:47.220158</dc:date>
    <dc:format>image/svg+xml</dc:format>
    <dc:creator>
     <cc:Agent>
      <dc:title>Matplotlib v3.9.2, https://matplotlib.org/</dc:title>
     </cc:Agent>
    </dc:creator>
   </cc:Work>
  </rdf:RDF>
 </metadata>
 <defs>
  <style type="text/css">*{stroke-linejoin: round; stroke-linecap: butt}</style>
 </defs>
 <g id="figure_1">
  <g id="patch_1">
   <path d="M 0 345.6 
L 460.8 345.6 
L 460.8 0 
L 0 0 
z
" style="fill: #ffffff"/>
  </g>
  <g id="axes_1">
   <g id="patch_2">
    <path d="M 57.6 307.584 
L 414.72 307.584 
L 414.72 41.472 
L 57.6 41.472 
z
" style="fill: #ffffff"/>
   </g>
   <g id="matplotlib.axis_1">
    <g id="xtick_1">
     <g id="line2d_1">
      <defs>
       <path id="m13d8594f32" d="M 0 0 
L 0 3.5 
" style="stroke: #000000; stroke-width: 0.8"/>
      </defs>
      <g>
       <use xlink:href="#m13d8594f32" x="73.723158" y="307.584" style="stroke: #000000; stroke-width: 0.8"/>
      </g>
     </g>
     <g id="text_1">
      <!-- 0 -->
      <g transform="translate(70.541908 322.182437) scale(0.1 -0.1)">
       <defs>
        <path id="DejaVuSans-30" d="M 2034 4250 
Q 1547 4250 1301 3770 
Q 1056 3291 1056 2328 
Q 1056 1369 1301 889 
Q 1547 409 2034 409 
Q 2525 409 2770 889 
Q 3016 1369 3016 2328 
Q 3016 3291 2770 3770 
Q 2525 4250 2034 4250 
z
M 2034 4750 
Q 2819 4750 3233 4129 
Q 3647 3509 3647 2328 
Q 3647 1150 3233 529 
Q 2819 -91 2034 -91 
Q 1250 -91 836 529 
Q 422 1150 422 2328 
Q 422 3509 836 4129 
Q 1250 4750 2034 4750 
z
" transform="scale(0.015625)"/>
       </defs>
       <use xlink:href="#DejaVuSans-30"/>
      </g>
     </g>
    </g>
    <g id="xtick_2">
     <g id="line2d_2">
      <g>
       <use xlink:href="#m13d8594f32" x="128.507927" y="307.584" style="stroke: #000000; stroke-width: 0.8"/>
      </g>
     </g>
     <g id="text_2">
      <!-- 500 -->
      <g transform="translate(118.964177 322.182437) scale(0.1 -0.1)">
       <defs>
        <path id="DejaVuSans-35" d="M 691 4666 
L 3169 4666 
L 3169 4134 
L 1269 4134 
L 1269 2991 
Q 1406 3038 1543 3061 
Q 1681 3084 1819 3084 
Q 2600 3084 3056 2656 
Q 3513 2228 3513 1497 
Q 3513 744 3044 326 
Q 2575 -91 1722 -91 
Q 1428 -91 1123 -41 
Q 819 9 494 109 
L 494 744 
Q 775 591 1075 516 
Q 1375 441 1709 441 
Q 2250 441 2565 725 
Q 2881 1009 2881 1497 
Q 2881 1984 2565 2268 
Q 2250 2553 1709 2553 
Q 1456 2553 1204 2497 
Q 953 2441 691 2322 
L 691 4666 
z
" transform="scale(0.015625)"/>
       </defs>
       <use xlink:href="#DejaVuSans-35"/>
       <use xlink:href="#DejaVuSans-30" x="63.623047"/>
       <use xlink:href="#DejaVuSans-30" x="127.246094"/>
      </g>
     </g>
    </g>
    <g id="xtick_3">
     <g id="line2d_3">
      <g>
       <use xlink:href="#m13d8594f32" x="183.292697" y="307.584" style="stroke: #000000; stroke-width: 0.8"/>
      </g>
     </g>
     <g id="text_3">
      <!-- 1000 -->
      <g transform="translate(170.567697 322.182437) scale(0.1 -0.1)">
       <defs>
        <path id="DejaVuSans-31" d="M 794 531 
L 1825 531 
L 1825 4091 
L 703 3866 
L 703 4441 
L 1819 4666 
L 2450 4666 
L 2450 531 
L 3481 531 
L 3481 0 
L 794 0 
L 794 531 
z
" transform="scale(0.015625)"/>
       </defs>
       <use xlink:href="#DejaVuSans-31"/>
       <use xlink:href="#DejaVuSans-30" x="63.623047"/>
       <use xlink:href="#DejaVuSans-30" x="127.246094"/>
       <use xlink:href="#DejaVuSans-30" x="190.869141"/>
      </g>
     </g>
    </g>
    <g id="xtick_4">
     <g id="line2d_4">
      <g>
       <use xlink:href="#m13d8594f32" x="238.077467" y="307.584" style="stroke: #000000; stroke-width: 0.8"/>
      </g>
     </g>
     <g id="text_4">
      <!-- 1500 -->
      <g transform="translate(225.352467 322.182437) scale(0.1 -0.1)">
       <use xlink:href="#DejaVuSans-31"/>
       <use xlink:href="#DejaVuSans-35" x="63.623047"/>
       <use xlink:href="#DejaVuSans-30" x="127.246094"/>
       <use xlink:href="#DejaVuSans-30" x="190.869141"/>
      </g>
     </g>
    </g>
    <g id="xtick_5">
     <g id="line2d_5">
      <g>
       <use xlink:href="#m13d8594f32" x="292.862237" y="307.584" style="stroke: #000000; stroke-width: 0.8"/>
      </g>
     </g>
     <g id="text_5">
      <!-- 2000 -->
      <g transform="translate(280.137237 322.182437) scale(0.1 -0.1)">
       <defs>
        <path id="DejaVuSans-32" d="M 1228 531 
L 3431 531 
L 3431 0 
L 469 0 
L 469 531 
Q 828 903 1448 1529 
Q 2069 2156 2228 2338 
Q 2531 2678 2651 2914 
Q 2772 3150 2772 3378 
Q 2772 3750 2511 3984 
Q 2250 4219 1831 4219 
Q 1534 4219 1204 4116 
Q 875 4013 500 3803 
L 500 4441 
Q 881 4594 1212 4672 
Q 1544 4750 1819 4750 
Q 2544 4750 2975 4387 
Q 3406 4025 3406 3419 
Q 3406 3131 3298 2873 
Q 3191 2616 2906 2266 
Q 2828 2175 2409 1742 
Q 1991 1309 1228 531 
z
" transform="scale(0.015625)"/>
       </defs>
       <use xlink:href="#DejaVuSans-32"/>
       <use xlink:href="#DejaVuSans-30" x="63.623047"/>
       <use xlink:href="#DejaVuSans-30" x="127.246094"/>
       <use xlink:href="#DejaVuSans-30" x="190.869141"/>
      </g>
     </g>
    </g>
    <g id="xtick_6">
     <g id="line2d_6">
      <g>
       <use xlink:href="#m13d8594f32" x="347.647006" y="307.584" style="stroke: #000000; stroke-width: 0.8"/>
      </g>
     </g>
     <g id="text_6">
      <!-- 2500 -->
      <g transform="translate(334.922006 322.182437) scale(0.1 -0.1)">
       <use xlink:href="#DejaVuSans-32"/>
       <use xlink:href="#DejaVuSans-35" x="63.623047"/>
       <use xlink:href="#DejaVuSans-30" x="127.246094"/>
       <use xlink:href="#DejaVuSans-30" x="190.869141"/>
      </g>
     </g>
    </g>
    <g id="xtick_7">
     <g id="line2d_7">
      <g>
       <use xlink:href="#m13d8594f32" x="402.431776" y="307.584" style="stroke: #000000; stroke-width: 0.8"/>
      </g>
     </g>
     <g id="text_7">
      <!-- 3000 -->
      <g transform="translate(389.706776 322.182437) scale(0.1 -0.1)">
       <defs>
        <path id="DejaVuSans-33" d="M 2597 2516 
Q 3050 2419 3304 2112 
Q 3559 1806 3559 1356 
Q 3559 666 3084 287 
Q 2609 -91 1734 -91 
Q 1441 -91 1130 -33 
Q 819 25 488 141 
L 488 750 
Q 750 597 1062 519 
Q 1375 441 1716 441 
Q 2309 441 2620 675 
Q 2931 909 2931 1356 
Q 2931 1769 2642 2001 
Q 2353 2234 1838 2234 
L 1294 2234 
L 1294 2753 
L 1863 2753 
Q 2328 2753 2575 2939 
Q 2822 3125 2822 3475 
Q 2822 3834 2567 4026 
Q 2313 4219 1838 4219 
Q 1578 4219 1281 4162 
Q 984 4106 628 3988 
L 628 4550 
Q 988 4650 1302 4700 
Q 1616 4750 1894 4750 
Q 2613 4750 3031 4423 
Q 3450 4097 3450 3541 
Q 3450 3153 3228 2886 
Q 3006 2619 2597 2516 
z
" transform="scale(0.015625)"/>
       </defs>
       <use xlink:href="#DejaVuSans-33"/>
       <use xlink:href="#DejaVuSans-30" x="63.623047"/>
       <use xlink:href="#DejaVuSans-30" x="127.246094"/>
       <use xlink:href="#DejaVuSans-30" x="190.869141"/>
      </g>
     </g>
    </g>
    <g id="text_8">
     <!-- Training Step -->
     <g transform="translate(203.46 335.860562) scale(0.1 -0.1)">
      <defs>
       <path id="DejaVuSans-54" d="M -19 4666 
L 3928 4666 
L 3928 4134 
L 2272 4134 
L 2272 0 
L 1638 0 
L 1638 4134 
L -19 4134 
L -19 4666 
z
" transform="scale(0.015625)"/>
       <path id="DejaVuSans-72" d="M 2631 2963 
Q 2534 3019 2420 3045 
Q 2306 3072 2169 3072 
Q 1681 3072 1420 2755 
Q 1159 2438 1159 1844 
L 1159 0 
L 581 0 
L 581 3500 
L 1159 3500 
L 1159 2956 
Q 1341 3275 1631 3429 
Q 1922 3584 2338 3584 
Q 2397 3584 2469 3576 
Q 2541 3569 2628 3553 
L 2631 2963 
z
" transform="scale(0.015625)"/>
       <path id="DejaVuSans-61" d="M 2194 1759 
Q 1497 1759 1228 1600 
Q 959 1441 959 1056 
Q 959 750 1161 570 
Q 1363 391 1709 391 
Q 2188 391 2477 730 
Q 2766 1069 2766 1631 
L 2766 1759 
L 2194 1759 
z
M 3341 1997 
L 3341 0 
L 2766 0 
L 2766 531 
Q 2569 213 2275 61 
Q 1981 -91 1556 -91 
Q 1019 -91 701 211 
Q 384 513 384 1019 
Q 384 1609 779 1909 
Q 1175 2209 1959 2209 
L 2766 2209 
L 2766 2266 
Q 2766 2663 2505 2880 
Q 2244 3097 1772 3097 
Q 1472 3097 1187 3025 
Q 903 2953 641 2809 
L 641 3341 
Q 956 3463 1253 3523 
Q 1550 3584 1831 3584 
Q 2591 3584 2966 3190 
Q 3341 2797 3341 1997 
z
" transform="scale(0.015625)"/>
       <path id="DejaVuSans-69" d="M 603 3500 
L 1178 3500 
L 1178 0 
L 603 0 
L 603 3500 
z
M 603 4863 
L 1178 4863 
L 1178 4134 
L 603 4134 
L 603 4863 
z
" transform="scale(0.015625)"/>
       <path id="DejaVuSans-6e" d="M 3513 2113 
L 3513 0 
L 2938 0 
L 2938 2094 
Q 2938 2591 2744 2837 
Q 2550 3084 2163 3084 
Q 1697 3084 1428 2787 
Q 1159 2491 1159 1978 
L 1159 0 
L 581 0 
L 581 3500 
L 1159 3500 
L 1159 2956 
Q 1366 3272 1645 3428 
Q 1925 3584 2291 3584 
Q 2894 3584 3203 3211 
Q 3513 2838 3513 2113 
z
" transform="scale(0.015625)"/>
       <path id="DejaVuSans-67" d="M 2906 1791 
Q 2906 2416 2648 2759 
Q 2391 3103 1925 3103 
Q 1463 3103 1205 2759 
Q 947 2416 947 1791 
Q 947 1169 1205 825 
Q 1463 481 1925 481 
Q 2391 481 2648 825 
Q 2906 1169 2906 1791 
z
M 3481 434 
Q 3481 -459 3084 -895 
Q 2688 -1331 1869 -1331 
Q 1566 -1331 1297 -1286 
Q 1028 -1241 775 -1147 
L 775 -588 
Q 1028 -725 1275 -790 
Q 1522 -856 1778 -856 
Q 2344 -856 2625 -561 
Q 2906 -266 2906 331 
L 2906 616 
Q 2728 306 2450 153 
Q 2172 0 1784 0 
Q 1141 0 747 490 
Q 353 981 353 1791 
Q 353 2603 747 3093 
Q 1141 3584 1784 3584 
Q 2172 3584 2450 3431 
Q 2728 3278 2906 2969 
L 2906 3500 
L 3481 3500 
L 3481 434 
z
" transform="scale(0.015625)"/>
       <path id="DejaVuSans-20" transform="scale(0.015625)"/>
       <path id="DejaVuSans-53" d="M 3425 4513 
L 3425 3897 
Q 3066 4069 2747 4153 
Q 2428 4238 2131 4238 
Q 1616 4238 1336 4038 
Q 1056 3838 1056 3469 
Q 1056 3159 1242 3001 
Q 1428 2844 1947 2747 
L 2328 2669 
Q 3034 2534 3370 2195 
Q 3706 1856 3706 1288 
Q 3706 609 3251 259 
Q 2797 -91 1919 -91 
Q 1588 -91 1214 -16 
Q 841 59 441 206 
L 441 856 
Q 825 641 1194 531 
Q 1563 422 1919 422 
Q 2459 422 2753 634 
Q 3047 847 3047 1241 
Q 3047 1584 2836 1778 
Q 2625 1972 2144 2069 
L 1759 2144 
Q 1053 2284 737 2584 
Q 422 2884 422 3419 
Q 422 4038 858 4394 
Q 1294 4750 2059 4750 
Q 2388 4750 2728 4690 
Q 3069 4631 3425 4513 
z
" transform="scale(0.015625)"/>
       <path id="DejaVuSans-74" d="M 1172 4494 
L 1172 3500 
L 2356 3500 
L 2356 3053 
L 1172 3053 
L 1172 1153 
Q 1172 725 1289 603 
Q 1406 481 1766 481 
L 2356 481 
L 2356 0 
L 1766 0 
Q 1100 0 847 248 
Q 594 497 594 1153 
L 594 3053 
L 172 3053 
L 172 3500 
L 594 3500 
L 594 4494 
L 1172 4494 
z
" transform="scale(0.015625)"/>
       <path id="DejaVuSans-65" d="M 3597 1894 
L 3597 1613 
L 953 1613 
Q 991 1019 1311 708 
Q 1631 397 2203 397 
Q 2534 397 2845 478 
Q 3156 559 3463 722 
L 3463 178 
Q 3153 47 2828 -22 
Q 2503 -91 2169 -91 
Q 1331 -91 842 396 
Q 353 884 353 1716 
Q 353 2575 817 3079 
Q 1281 3584 2069 3584 
Q 2775 3584 3186 3129 
Q 3597 2675 3597 1894 
z
M 3022 2063 
Q 3016 2534 2758 2815 
Q 2500 3097 2075 3097 
Q 1594 3097 1305 2825 
Q 1016 2553 972 2059 
L 3022 2063 
z
" transform="scale(0.015625)"/>
       <path id="DejaVuSans-70" d="M 1159 525 
L 1159 -1331 
L 581 -1331 
L 581 3500 
L 1159 3500 
L 1159 2969 
Q 1341 3281 1617 3432 
Q 1894 3584 2278 3584 
Q 2916 3584 3314 3078 
Q 3713 2572 3713 1747 
Q 3713 922 3314 415 
Q 2916 -91 2278 -91 
Q 1894 -91 1617 61 
Q 1341 213 1159 525 
z
M 3116 1747 
Q 3116 2381 2855 2742 
Q 2594 3103 2138 3103 
Q 1681 3103 1420 2742 
Q 1159 2381 1159 1747 
Q 1159 1113 1420 752 
Q 1681 391 2138 391 
Q 2594 391 2855 752 
Q 3116 1113 3116 1747 
z
" transform="scale(0.015625)"/>
      </defs>
      <use xlink:href="#DejaVuSans-54"/>
      <use xlink:href="#DejaVuSans-72" x="46.333984"/>
      <use xlink:href="#DejaVuSans-61" x="87.447266"/>
      <use xlink:href="#DejaVuSans-69" x="148.726562"/>
      <use xlink:href="#DejaVuSans-6e" x="176.509766"/>
      <use xlink:href="#DejaVuSans-69" x="239.888672"/>
      <use xlink:href="#DejaVuSans-6e" x="267.671875"/>
      <use xlink:href="#DejaVuSans-67" x="331.050781"/>
      <use xlink:href="#DejaVuSans-20" x="394.527344"/>
      <use xlink:href="#DejaVuSans-53" x="426.314453"/>
      <use xlink:href="#DejaVuSans-74" x="489.791016"/>
      <use xlink:href="#DejaVuSans-65" x="529"/>
      <use xlink:href="#DejaVuSans-70" x="590.523438"/>
     </g>
    </g>
   </g>
   <g id="matplotlib.axis_2">
    <g id="ytick_1">
     <g id="line2d_8">
      <defs>
       <path id="m3738c38d9a" d="M 0 0 
L -3.5 0 
" style="stroke: #000000; stroke-width: 0.8"/>
      </defs>
      <g>
       <use xlink:href="#m3738c38d9a" x="57.6" y="305.679881" style="stroke: #000000; stroke-width: 0.8"/>
      </g>
     </g>
     <g id="text_9">
      <!-- 4.125 -->
      <g transform="translate(21.971875 309.4791) scale(0.1 -0.1)">
       <defs>
        <path id="DejaVuSans-34" d="M 2419 4116 
L 825 1625 
L 2419 1625 
L 2419 4116 
z
M 2253 4666 
L 3047 4666 
L 3047 1625 
L 3713 1625 
L 3713 1100 
L 3047 1100 
L 3047 0 
L 2419 0 
L 2419 1100 
L 313 1100 
L 313 1709 
L 2253 4666 
z
" transform="scale(0.015625)"/>
        <path id="DejaVuSans-2e" d="M 684 794 
L 1344 794 
L 1344 0 
L 684 0 
L 684 794 
z
" transform="scale(0.015625)"/>
       </defs>
       <use xlink:href="#DejaVuSans-34"/>
       <use xlink:href="#DejaVuSans-2e" x="63.623047"/>
       <use xlink:href="#DejaVuSans-31" x="95.410156"/>
       <use xlink:href="#DejaVuSans-32" x="159.033203"/>
       <use xlink:href="#DejaVuSans-35" x="222.65625"/>
      </g>
     </g>
    </g>
    <g id="ytick_2">
     <g id="line2d_9">
      <g>
       <use xlink:href="#m3738c38d9a" x="57.6" y="275.042412" style="stroke: #000000; stroke-width: 0.8"/>
      </g>
     </g>
     <g id="text_10">
      <!-- 4.150 -->
      <g transform="translate(21.971875 278.841631) scale(0.1 -0.1)">
       <use xlink:href="#DejaVuSans-34"/>
       <use xlink:href="#DejaVuSans-2e" x="63.623047"/>
       <use xlink:href="#DejaVuSans-31" x="95.410156"/>
       <use xlink:href="#DejaVuSans-35" x="159.033203"/>
       <use xlink:href="#DejaVuSans-30" x="222.65625"/>
      </g>
     </g>
    </g>
    <g id="ytick_3">
     <g id="line2d_10">
      <g>
       <use xlink:href="#m3738c38d9a" x="57.6" y="244.404943" style="stroke: #000000; stroke-width: 0.8"/>
      </g>
     </g>
     <g id="text_11">
      <!-- 4.175 -->
      <g transform="translate(21.971875 248.204161) scale(0.1 -0.1)">
       <defs>
        <path id="DejaVuSans-37" d="M 525 4666 
L 3525 4666 
L 3525 4397 
L 1831 0 
L 1172 0 
L 2766 4134 
L 525 4134 
L 525 4666 
z
" transform="scale(0.015625)"/>
       </defs>
       <use xlink:href="#DejaVuSans-34"/>
       <use xlink:href="#DejaVuSans-2e" x="63.623047"/>
       <use xlink:href="#DejaVuSans-31" x="95.410156"/>
       <use xlink:href="#DejaVuSans-37" x="159.033203"/>
       <use xlink:href="#DejaVuSans-35" x="222.65625"/>
      </g>
     </g>
    </g>
    <g id="ytick_4">
     <g id="line2d_11">
      <g>
       <use xlink:href="#m3738c38d9a" x="57.6" y="213.767473" style="stroke: #000000; stroke-width: 0.8"/>
      </g>
     </g>
     <g id="text_12">
      <!-- 4.200 -->
      <g transform="translate(21.971875 217.566692) scale(0.1 -0.1)">
       <use xlink:href="#DejaVuSans-34"/>
       <use xlink:href="#DejaVuSans-2e" x="63.623047"/>
       <use xlink:href="#DejaVuSans-32" x="95.410156"/>
       <use xlink:href="#DejaVuSans-30" x="159.033203"/>
       <use xlink:href="#DejaVuSans-30" x="222.65625"/>
      </g>
     </g>
    </g>
    <g id="ytick_5">
     <g id="line2d_12">
      <g>
       <use xlink:href="#m3738c38d9a" x="57.6" y="183.130004" style="stroke: #000000; stroke-width: 0.8"/>
      </g>
     </g>
     <g id="text_13">
      <!-- 4.225 -->
      <g transform="translate(21.971875 186.929223) scale(0.1 -0.1)">
       <use xlink:href="#DejaVuSans-34"/>
       <use xlink:href="#DejaVuSans-2e" x="63.623047"/>
       <use xlink:href="#DejaVuSans-32" x="95.410156"/>
       <use xlink:href="#DejaVuSans-32" x="159.033203"/>
       <use xlink:href="#DejaVuSans-35" x="222.65625"/>
      </g>
     </g>
    </g>
    <g id="ytick_6">
     <g id="line2d_13">
      <g>
       <use xlink:href="#m3738c38d9a" x="57.6" y="152.492535" style="stroke: #000000; stroke-width: 0.8"/>
      </g>
     </g>
     <g id="text_14">
      <!-- 4.250 -->
      <g transform="translate(21.971875 156.291753) scale(0.1 -0.1)">
       <use xlink:href="#DejaVuSans-34"/>
       <use xlink:href="#DejaVuSans-2e" x="63.623047"/>
       <use xlink:href="#DejaVuSans-32" x="95.410156"/>
       <use xlink:href="#DejaVuSans-35" x="159.033203"/>
       <use xlink:href="#DejaVuSans-30" x="222.65625"/>
      </g>
     </g>
    </g>
    <g id="ytick_7">
     <g id="line2d_14">
      <g>
       <use xlink:href="#m3738c38d9a" x="57.6" y="121.855065" style="stroke: #000000; stroke-width: 0.8"/>
      </g>
     </g>
     <g id="text_15">
      <!-- 4.275 -->
      <g transform="translate(21.971875 125.654284) scale(0.1 -0.1)">
       <use xlink:href="#DejaVuSans-34"/>
       <use xlink:href="#DejaVuSans-2e" x="63.623047"/>
       <use xlink:href="#DejaVuSans-32" x="95.410156"/>
       <use xlink:href="#DejaVuSans-37" x="159.033203"/>
       <use xlink:href="#DejaVuSans-35" x="222.65625"/>
      </g>
     </g>
    </g>
    <g id="ytick_8">
     <g id="line2d_15">
      <g>
       <use xlink:href="#m3738c38d9a" x="57.6" y="91.217596" style="stroke: #000000; stroke-width: 0.8"/>
      </g>
     </g>
     <g id="text_16">
      <!-- 4.300 -->
      <g transform="translate(21.971875 95.016815) scale(0.1 -0.1)">
       <use xlink:href="#DejaVuSans-34"/>
       <use xlink:href="#DejaVuSans-2e" x="63.623047"/>
       <use xlink:href="#DejaVuSans-33" x="95.410156"/>
       <use xlink:href="#DejaVuSans-30" x="159.033203"/>
       <use xlink:href="#DejaVuSans-30" x="222.65625"/>
      </g>
     </g>
    </g>
    <g id="ytick_9">
     <g id="line2d_16">
      <g>
       <use xlink:href="#m3738c38d9a" x="57.6" y="60.580126" style="stroke: #000000; stroke-width: 0.8"/>
      </g>
     </g>
     <g id="text_17">
      <!-- 4.325 -->
      <g transform="translate(21.971875 64.379345) scale(0.1 -0.1)">
       <use xlink:href="#DejaVuSans-34"/>
       <use xlink:href="#DejaVuSans-2e" x="63.623047"/>
       <use xlink:href="#DejaVuSans-33" x="95.410156"/>
       <use xlink:href="#DejaVuSans-32" x="159.033203"/>
       <use xlink:href="#DejaVuSans-35" x="222.65625"/>
      </g>
     </g>
    </g>
    <g id="text_18">
     <!-- Loss Value -->
     <g transform="translate(15.892187 200.8155) rotate(-90) scale(0.1 -0.1)">
      <defs>
       <path id="DejaVuSans-4c" d="M 628 4666 
L 1259 4666 
L 1259 531 
L 3531 531 
L 3531 0 
L 628 0 
L 628 4666 
z
" transform="scale(0.015625)"/>
       <path id="DejaVuSans-6f" d="M 1959 3097 
Q 1497 3097 1228 2736 
Q 959 2375 959 1747 
Q 959 1119 1226 758 
Q 1494 397 1959 397 
Q 2419 397 2687 759 
Q 2956 1122 2956 1747 
Q 2956 2369 2687 2733 
Q 2419 3097 1959 3097 
z
M 1959 3584 
Q 2709 3584 3137 3096 
Q 3566 2609 3566 1747 
Q 3566 888 3137 398 
Q 2709 -91 1959 -91 
Q 1206 -91 779 398 
Q 353 888 353 1747 
Q 353 2609 779 3096 
Q 1206 3584 1959 3584 
z
" transform="scale(0.015625)"/>
       <path id="DejaVuSans-73" d="M 2834 3397 
L 2834 2853 
Q 2591 2978 2328 3040 
Q 2066 3103 1784 3103 
Q 1356 3103 1142 2972 
Q 928 2841 928 2578 
Q 928 2378 1081 2264 
Q 1234 2150 1697 2047 
L 1894 2003 
Q 2506 1872 2764 1633 
Q 3022 1394 3022 966 
Q 3022 478 2636 193 
Q 2250 -91 1575 -91 
Q 1294 -91 989 -36 
Q 684 19 347 128 
L 347 722 
Q 666 556 975 473 
Q 1284 391 1588 391 
Q 1994 391 2212 530 
Q 2431 669 2431 922 
Q 2431 1156 2273 1281 
Q 2116 1406 1581 1522 
L 1381 1569 
Q 847 1681 609 1914 
Q 372 2147 372 2553 
Q 372 3047 722 3315 
Q 1072 3584 1716 3584 
Q 2034 3584 2315 3537 
Q 2597 3491 2834 3397 
z
" transform="scale(0.015625)"/>
       <path id="DejaVuSans-56" d="M 1831 0 
L 50 4666 
L 709 4666 
L 2188 738 
L 3669 4666 
L 4325 4666 
L 2547 0 
L 1831 0 
z
" transform="scale(0.015625)"/>
       <path id="DejaVuSans-6c" d="M 603 4863 
L 1178 4863 
L 1178 0 
L 603 0 
L 603 4863 
z
" transform="scale(0.015625)"/>
       <path id="DejaVuSans-75" d="M 544 1381 
L 544 3500 
L 1119 3500 
L 1119 1403 
Q 1119 906 1312 657 
Q 1506 409 1894 409 
Q 2359 409 2629 706 
Q 2900 1003 2900 1516 
L 2900 3500 
L 3475 3500 
L 3475 0 
L 2900 0 
L 2900 538 
Q 2691 219 2414 64 
Q 2138 -91 1772 -91 
Q 1169 -91 856 284 
Q 544 659 544 1381 
z
M 1991 3584 
L 1991 3584 
z
" transform="scale(0.015625)"/>
      </defs>
      <use xlink:href="#DejaVuSans-4c"/>
      <use xlink:href="#DejaVuSans-6f" x="53.962891"/>
      <use xlink:href="#DejaVuSans-73" x="115.144531"/>
      <use xlink:href="#DejaVuSans-73" x="167.244141"/>
      <use xlink:href="#DejaVuSans-20" x="219.34375"/>
      <use xlink:href="#DejaVuSans-56" x="251.130859"/>
      <use xlink:href="#DejaVuSans-61" x="311.789062"/>
      <use xlink:href="#DejaVuSans-6c" x="373.068359"/>
      <use xlink:href="#DejaVuSans-75" x="400.851562"/>
      <use xlink:href="#DejaVuSans-65" x="464.230469"/>
     </g>
    </g>
   </g>
   <g id="line2d_17">
    <path d="M 73.832727 53.575012 
L 74.709284 53.637539 
L 77.777231 53.904593 
L 85.775807 54.666603 
L 85.885377 54.735558 
L 86.104516 54.577196 
L 86.542794 54.747245 
L 86.761933 54.682965 
L 87.090642 54.863534 
L 87.200211 54.677706 
L 87.309781 54.81211 
L 87.638489 54.78406 
L 87.857628 54.811525 
L 88.076767 54.830225 
L 88.186337 54.823212 
L 88.295906 54.930735 
L 88.515046 54.924307 
L 89.172463 54.956447 
L 89.282032 54.871715 
L 89.501171 54.92197 
L 89.93945 54.969303 
L 90.268158 55.056373 
L 90.377728 55.195452 
L 90.596867 54.99969 
L 90.706436 54.984497 
L 90.925575 55.120069 
L 91.254284 55.075657 
L 91.363854 55.325181 
L 91.582993 55.059295 
L 91.692562 55.189608 
L 91.802132 55.119485 
L 92.13084 55.284275 
L 92.349979 55.206555 
L 92.459549 55.165065 
L 92.569119 55.291288 
L 92.788258 55.272588 
L 93.007397 55.304728 
L 93.116966 55.280185 
L 93.226536 55.393551 
L 93.445675 55.329271 
L 93.774383 55.336284 
L 93.883953 55.217073 
L 93.993523 55.363164 
L 94.103092 55.27551 
L 94.322231 55.399395 
L 94.431801 55.383033 
L 94.54137 55.517436 
L 94.65094 55.352061 
L 94.979648 55.560095 
L 96.513622 55.71612 
L 96.623191 55.843511 
L 96.732761 55.656515 
L 97.06147 55.959799 
L 97.171039 55.654762 
L 97.390178 55.757609 
L 97.499748 55.720795 
L 97.718887 55.932918 
L 97.828456 55.828902 
L 97.938026 55.898441 
L 98.157165 55.820721 
L 98.814582 56.025832 
L 98.924152 55.872729 
L 99.033721 55.96389 
L 99.143291 55.765206 
L 99.36243 56.038688 
L 99.472 55.913634 
L 99.581569 56.017067 
L 99.910278 55.949281 
L 100.019847 56.141536 
L 100.458125 56.00538 
L 100.567695 56.109396 
L 100.786834 55.953956 
L 100.896404 56.147964 
L 101.115543 55.960384 
L 101.225112 56.204647 
L 101.553821 56.162573 
L 101.66339 56.212829 
L 101.77296 56.114655 
L 101.882529 56.196466 
L 101.992099 56.116409 
L 102.211238 56.342557 
L 102.320808 56.189454 
L 102.759086 56.318014 
L 102.868655 56.249059 
L 102.978225 56.422031 
L 103.087794 56.281199 
L 103.416503 56.507932 
L 103.526072 56.409759 
L 103.745212 56.655776 
L 104.07392 56.557019 
L 104.18349 56.648764 
L 104.402629 56.485726 
L 104.512198 56.410928 
L 104.621768 56.59734 
L 104.731337 56.475792 
L 105.169616 56.963735 
L 105.388755 56.589159 
L 105.498324 56.898287 
L 105.717463 56.77148 
L 106.265311 57.03269 
L 106.37488 57.277539 
L 106.48445 56.901209 
L 106.59402 57.243645 
L 106.703589 56.971332 
L 106.922728 57.247152 
L 107.141867 56.951464 
L 107.470576 57.373374 
L 107.580145 57.026262 
L 107.799285 57.396164 
L 107.908854 57.314353 
L 108.018424 57.43181 
L 108.237563 57.179366 
L 108.456702 57.566798 
L 108.566271 57.052559 
L 108.78541 57.430642 
L 108.89498 57.580823 
L 109.004549 57.518296 
L 109.114119 57.704708 
L 109.333258 57.52414 
L 109.442828 57.667309 
L 109.552397 57.504856 
L 109.661967 57.660881 
L 109.771536 57.590757 
L 109.881106 57.873589 
L 110.100245 57.596017 
L 110.757662 57.858396 
L 110.976801 57.605366 
L 111.19594 57.857811 
L 111.415079 57.990462 
L 111.524649 58.057079 
L 111.634218 57.707046 
L 111.743788 58.214273 
L 111.853357 57.995137 
L 112.072497 58.185639 
L 112.182066 58.002733 
L 112.291636 58.254594 
L 112.510775 58.050067 
L 112.620344 58.196158 
L 112.839483 58.005655 
L 112.949053 58.239985 
L 113.277761 58.159927 
L 113.60647 58.450356 
L 113.71604 58.266281 
L 113.825609 58.70397 
L 113.935179 58.486002 
L 114.044748 58.730266 
L 114.154318 58.248166 
L 114.263887 58.664233 
L 114.373457 58.479574 
L 114.483026 58.717994 
L 114.592596 58.421138 
L 114.811735 58.494767 
L 114.921305 58.929534 
L 115.030874 58.896809 
L 115.140444 58.982711 
L 115.250013 58.696957 
L 115.469152 58.860579 
L 115.578722 58.920768 
L 115.688291 58.841879 
L 116.017 59.0429 
L 116.12657 58.685854 
L 116.345709 59.2223 
L 116.564848 58.903822 
L 117.003126 59.234571 
L 117.112695 58.903822 
L 117.441404 59.44202 
L 117.550974 59.010176 
L 117.660543 59.093155 
L 117.770113 59.383584 
L 117.989252 59.385337 
L 118.098821 59.703815 
L 118.31796 59.476498 
L 118.42753 59.278983 
L 118.537099 59.703815 
L 118.646669 59.371312 
L 118.756238 59.631354 
L 118.865808 59.550712 
L 118.975378 59.250934 
L 119.084947 59.633107 
L 119.194517 59.369559 
L 119.304086 59.729527 
L 119.413656 59.625511 
L 119.523225 59.721346 
L 119.632795 59.484095 
L 119.851934 60.031643 
L 119.961503 59.572333 
L 120.071073 59.922367 
L 120.180642 59.77277 
L 120.290212 59.984894 
L 120.618921 59.83705 
L 120.72849 60.177734 
L 121.057199 60.188252 
L 121.166768 59.748227 
L 121.385907 60.192927 
L 121.495477 60.358887 
L 121.605046 60.017034 
L 121.714616 60.144425 
L 121.933755 60.137997 
L 122.043325 60.165462 
L 122.152894 60.685546 
L 122.372033 60.332006 
L 122.700742 60.403882 
L 122.810311 61.005777 
L 123.02945 60.485693 
L 123.13902 60.701323 
L 123.24859 60.556986 
L 123.467729 60.766188 
L 123.686868 60.832805 
L 123.796437 60.977727 
L 123.906007 60.440697 
L 124.234715 61.073563 
L 124.453855 60.884814 
L 124.563424 60.871373 
L 124.672994 61.485539 
L 124.782563 61.012789 
L 124.892133 61.20446 
L 125.001702 61.134337 
L 125.111272 60.867867 
L 125.220841 61.269325 
L 125.330411 60.981818 
L 125.43998 61.050188 
L 125.659119 61.646239 
L 125.878259 61.285102 
L 125.987828 61.398469 
L 126.097398 61.16823 
L 126.316537 61.675457 
L 126.426106 61.995104 
L 126.645245 61.743243 
L 126.973954 62.150545 
L 127.193093 61.712856 
L 127.412232 62.10847 
L 127.521802 61.878816 
L 127.631371 62.51285 
L 127.740941 62.187944 
L 128.069649 62.452076 
L 128.179219 62.14587 
L 128.398358 62.419936 
L 128.507927 62.978003 
L 128.617497 62.648422 
L 128.727067 62.845937 
L 128.836636 62.58122 
L 128.946206 62.93067 
L 129.055775 62.378446 
L 129.274914 63.116497 
L 129.384484 62.258067 
L 129.494053 62.701599 
L 129.713192 62.4848 
L 129.822762 63.133444 
L 129.932331 63.019493 
L 130.041901 63.245641 
L 130.151471 63.15039 
L 130.26104 62.831912 
L 130.37061 63.150975 
L 130.589749 62.736077 
L 130.699318 63.075592 
L 130.808888 62.726142 
L 131.137596 63.787931 
L 131.356735 63.132859 
L 131.466305 63.072086 
L 131.575875 63.449 
L 131.685444 63.227526 
L 131.904583 63.72891 
L 132.233292 63.617297 
L 132.342861 64.004145 
L 132.562 63.464193 
L 132.78114 64.161923 
L 132.890709 64.216269 
L 133.109848 63.938112 
L 133.219418 63.918828 
L 133.438557 64.267693 
L 133.657696 63.929931 
L 133.767265 64.291068 
L 133.876835 63.947462 
L 134.095974 64.475726 
L 134.205544 63.642424 
L 134.315113 64.912246 
L 134.424683 64.891793 
L 134.643822 64.656295 
L 134.753391 64.689019 
L 134.862961 64.474558 
L 134.97253 64.548772 
L 135.191669 65.248839 
L 135.410808 64.521891 
L 135.520378 65.114435 
L 135.629948 64.572146 
L 135.958656 65.659062 
L 136.068226 65.129045 
L 136.177795 65.471481 
L 136.287365 65.070024 
L 136.396934 65.573745 
L 136.506504 65.244749 
L 136.616073 65.492519 
L 136.725643 64.953736 
L 136.835212 65.571408 
L 136.944782 65.345843 
L 137.054352 65.64679 
L 137.163921 65.551539 
L 137.273491 65.199753 
L 137.38306 65.237736 
L 137.711769 65.785285 
L 137.821338 65.388502 
L 138.150047 65.96819 
L 138.259616 65.501868 
L 138.369186 66.229985 
L 138.588325 65.767754 
L 138.807464 65.516477 
L 138.917034 66.360298 
L 139.026603 65.518815 
L 139.245742 66.815517 
L 139.464881 65.7847 
L 139.574451 65.70698 
L 139.68402 66.054092 
L 139.79359 65.520568 
L 140.012729 66.911937 
L 140.122299 65.89047 
L 140.231868 66.654817 
L 140.341438 65.963515 
L 140.670146 66.758834 
L 140.779716 66.199598 
L 140.998855 66.816102 
L 141.108425 66.712085 
L 141.217994 66.796233 
L 141.327564 66.573006 
L 141.437133 66.934727 
L 141.546703 66.058767 
L 141.656272 66.969205 
L 141.765842 66.83597 
L 141.875411 67.34086 
L 142.09455 67.147436 
L 142.20412 66.207195 
L 142.423259 67.497469 
L 142.532829 66.639039 
L 142.642398 67.70375 
L 142.861537 66.999592 
L 142.971107 67.603239 
L 143.080676 67.423839 
L 143.190246 67.880227 
L 143.299815 66.681114 
L 143.409385 67.53779 
L 143.518954 67.494547 
L 143.628524 66.861682 
L 144.066802 68.398558 
L 144.176372 67.354885 
L 144.395511 68.582632 
L 144.50508 68.282854 
L 144.61465 68.789497 
L 144.833789 68.099948 
L 144.943358 68.853192 
L 145.052928 68.207471 
L 145.162497 68.435372 
L 145.272067 69.034345 
L 145.491206 68.487381 
L 145.600776 68.442385 
L 145.819915 68.792418 
L 145.929484 68.723464 
L 146.148623 68.375183 
L 146.367762 69.539819 
L 146.477332 69.401909 
L 146.586901 69.874659 
L 146.696471 69.13953 
L 146.806041 69.409506 
L 146.91561 68.666196 
L 147.134749 70.509862 
L 147.463458 68.802353 
L 147.573027 69.199135 
L 147.682597 69.165242 
L 147.792166 70.202487 
L 147.901736 69.117324 
L 148.011305 69.980429 
L 148.230445 69.568453 
L 148.449584 70.352669 
L 148.668723 70.454932 
L 149.107001 70.651863 
L 149.32614 69.976923 
L 149.43571 70.051137 
L 149.545279 71.194736 
L 149.764418 70.148726 
L 149.873988 70.312348 
L 149.983557 69.681819 
L 150.202696 71.349592 
L 150.312266 70.619138 
L 150.421835 70.69978 
L 150.531405 71.071436 
L 150.640974 70.314685 
L 150.750544 71.284728 
L 151.079253 70.515122 
L 151.298392 71.702548 
L 151.517531 70.026594 
L 151.6271 71.476399 
L 151.73667 70.765229 
L 151.846239 71.638852 
L 151.955809 70.572974 
L 152.065378 71.520811 
L 152.174948 71.37472 
L 152.613226 71.572819 
L 152.832365 70.779838 
L 152.941935 70.736011 
L 153.051504 71.130456 
L 153.161074 72.546953 
L 153.270643 71.895388 
L 153.380213 72.061931 
L 153.489782 71.462375 
L 153.708922 72.848484 
L 153.928061 71.165518 
L 154.03763 72.290417 
L 154.1472 71.247913 
L 154.256769 72.243084 
L 154.366339 71.73761 
L 154.695047 73.150016 
L 154.804617 72.515982 
L 155.023756 73.142419 
L 155.242895 72.853159 
L 155.352465 72.584937 
L 155.462034 72.80232 
L 155.571604 72.758493 
L 155.790743 72.21445 
L 155.900312 73.784635 
L 156.009882 72.309701 
L 156.119451 73.556733 
L 156.229021 72.628179 
L 156.33859 73.934816 
L 156.44816 73.314222 
L 156.55773 74.960374 
L 156.667299 73.051259 
L 156.776869 73.943581 
L 156.886438 73.823203 
L 156.996008 73.13716 
L 157.215147 74.532035 
L 157.324716 73.047752 
L 157.434286 73.824371 
L 157.543855 72.836213 
L 157.653425 73.945919 
L 157.762995 73.928972 
L 157.982134 72.752065 
L 158.201273 74.118306 
L 158.310842 74.066298 
L 158.420412 73.854758 
L 158.529981 74.927065 
L 158.639551 73.054765 
L 158.74912 74.013705 
L 158.85869 73.791063 
L 158.968259 74.739484 
L 159.077829 74.394126 
L 159.296968 74.824217 
L 159.406538 73.783466 
L 159.516107 75.22509 
L 159.844816 74.537295 
L 159.954385 75.916392 
L 160.063955 74.825386 
L 160.283094 75.717709 
L 160.392663 74.914793 
L 160.502233 75.686737 
L 160.611803 74.640727 
L 160.830942 76.008137 
L 160.940511 75.384621 
L 161.26922 76.41427 
L 161.378789 74.890834 
L 161.488359 75.603758 
L 161.597928 74.618521 
L 161.817067 75.503247 
L 161.926637 75.40449 
L 162.036207 76.527636 
L 162.145776 76.269348 
L 162.255346 76.425373 
L 162.364915 75.55584 
L 162.584054 76.574385 
L 162.693624 76.452253 
L 162.803193 76.290969 
L 162.912763 74.563591 
L 163.022332 76.838517 
L 163.131902 76.777744 
L 163.351041 77.427556 
L 163.460611 76.669052 
L 163.57018 76.767225 
L 163.67975 76.228442 
L 163.789319 77.069341 
L 163.898889 76.205652 
L 164.227597 77.567803 
L 164.337167 77.126024 
L 164.446736 78.364875 
L 164.556306 78.322216 
L 164.665875 77.004477 
L 164.775445 77.616889 
L 164.885015 76.313759 
L 164.994584 77.190304 
L 165.104154 79.560482 
L 165.323293 77.46963 
L 165.432862 78.881452 
L 165.652001 77.780511 
L 165.761571 79.032802 
L 165.87114 77.027851 
L 165.98071 77.861153 
L 166.09028 76.815143 
L 166.199849 77.954067 
L 166.309419 76.949546 
L 166.528558 79.118703 
L 166.638127 78.218784 
L 166.747697 78.371887 
L 166.857266 79.097666 
L 166.966836 77.624486 
L 167.076405 78.058668 
L 167.185975 78.02945 
L 167.295544 79.517239 
L 167.514684 77.972767 
L 167.843392 78.146907 
L 167.952962 78.985468 
L 168.062531 78.938719 
L 168.28167 77.459696 
L 168.500809 79.609568 
L 168.719948 78.99774 
L 168.829518 78.762242 
L 169.267796 80.248278 
L 169.486935 77.622733 
L 169.596505 80.058944 
L 169.706074 79.364136 
L 169.815644 80.189841 
L 169.925213 79.493865 
L 170.034783 80.119133 
L 170.144352 79.802408 
L 170.253922 79.988236 
L 170.473061 79.693717 
L 170.6922 81.005612 
L 170.80177 80.57669 
L 170.911339 81.047687 
L 171.020909 80.514747 
L 171.240048 81.524527 
L 171.459187 80.535784 
L 171.787896 81.075736 
L 171.897465 80.335348 
L 172.226174 80.820369 
L 172.335743 81.700421 
L 172.445313 79.819355 
L 172.554882 81.257473 
L 172.664452 80.134911 
L 172.883591 82.585731 
L 173.10273 81.600494 
L 173.2123 81.55433 
L 173.321869 81.083333 
L 173.431439 82.7476 
L 173.650578 82.069154 
L 173.760147 83.604276 
L 173.869717 81.831902 
L 173.979286 82.291796 
L 174.088856 83.580902 
L 174.198425 81.063464 
L 174.417565 82.400488 
L 174.527134 82.035261 
L 174.636704 83.94496 
L 174.965412 80.921464 
L 175.074982 83.71063 
L 175.184551 82.36601 
L 175.51326 83.902302 
L 175.622829 82.056882 
L 175.841969 83.299823 
L 175.951538 83.122177 
L 176.061108 81.459078 
L 176.170677 83.111658 
L 176.389816 82.102463 
L 176.499386 83.38105 
L 176.608955 82.847526 
L 176.718525 84.961168 
L 176.828094 82.67806 
L 176.937664 84.297331 
L 177.156803 83.396827 
L 177.266373 83.434227 
L 177.375942 85.281399 
L 177.485512 82.453081 
L 177.595081 82.760456 
L 177.704651 82.547747 
L 177.81422 81.845927 
L 178.033359 85.037135 
L 178.142929 82.872069 
L 178.252498 84.439332 
L 178.362068 82.846357 
L 178.471637 83.275864 
L 178.581207 82.553007 
L 178.690777 85.755902 
L 178.800346 83.56863 
L 179.019485 84.525233 
L 179.129055 83.247815 
L 179.238624 83.305082 
L 179.348194 85.506963 
L 179.457763 83.765561 
L 179.676902 84.027355 
L 179.786472 87.22616 
L 180.005611 84.131956 
L 180.115181 85.007917 
L 180.22475 84.968765 
L 180.33432 84.414788 
L 180.443889 84.621069 
L 180.553459 84.388492 
L 180.663028 83.838606 
L 180.772598 86.031722 
L 180.882167 85.641367 
L 180.991737 86.412727 
L 181.210876 84.795793 
L 181.320445 85.641367 
L 181.539585 84.744369 
L 181.649154 84.845464 
L 181.758724 85.878034 
L 181.977863 85.314123 
L 182.197002 86.647056 
L 182.416141 86.933394 
L 182.52571 86.647641 
L 182.63528 87.064292 
L 182.74485 86.942744 
L 182.963989 85.290749 
L 183.073558 88.146533 
L 183.183128 86.0475 
L 183.292697 87.911619 
L 183.621406 84.767159 
L 183.840545 88.184516 
L 184.059684 86.971962 
L 184.169254 87.641643 
L 184.278823 89.785088 
L 184.388393 87.63054 
L 184.497962 88.079331 
L 184.717101 89.655943 
L 184.826671 87.081238 
L 184.93624 89.914816 
L 185.04581 87.990508 
L 185.155379 89.763466 
L 185.484088 86.623097 
L 185.593658 84.838452 
L 185.703227 89.115407 
L 185.922366 88.306064 
L 186.031936 86.963781 
L 186.251075 89.904298 
L 186.360644 87.917462 
L 186.470214 88.326517 
L 186.579783 87.846754 
L 186.689353 90.437821 
L 186.798922 87.756762 
L 187.018062 89.465441 
L 187.127631 90.593846 
L 187.45634 86.672768 
L 187.565909 89.954553 
L 187.675479 89.326362 
L 187.785048 91.77426 
L 187.894618 89.431548 
L 188.004187 90.589756 
L 188.223326 89.222346 
L 188.552035 90.77383 
L 188.771174 89.668799 
L 188.880744 90.382891 
L 188.990313 90.001886 
L 189.099883 90.305755 
L 189.209452 89.212411 
L 189.319022 89.352074 
L 189.428591 92.002162 
L 189.538161 90.132199 
L 189.64773 91.556877 
L 189.7573 89.418107 
L 189.86687 90.513204 
L 189.976439 92.915522 
L 190.086009 90.584497 
L 190.195578 91.941973 
L 190.414717 90.267187 
L 190.524287 91.939635 
L 190.743426 90.038117 
L 190.852995 90.312183 
L 191.072135 92.816765 
L 191.181704 92.755406 
L 191.291274 92.682945 
L 191.400843 88.536303 
L 191.619982 91.826853 
L 191.729552 91.598367 
L 191.839121 89.838849 
L 192.05826 92.817933 
L 192.277399 89.880923 
L 192.386969 92.580097 
L 192.496539 91.653297 
L 192.715678 94.623616 
L 192.825247 94.414998 
L 192.934817 92.37148 
L 193.044386 92.776444 
L 193.153956 92.303694 
L 193.263525 93.39879 
L 193.373095 92.534517 
L 193.482664 93.420412 
L 193.592234 92.849489 
L 193.701803 93.193679 
L 193.811373 92.37557 
L 194.030512 93.228156 
L 194.140082 94.67504 
L 194.46879 91.8064 
L 194.57836 93.779211 
L 194.687929 93.670519 
L 194.907068 95.770137 
L 195.126207 93.658832 
L 195.235777 94.392208 
L 195.345347 94.051524 
L 195.454916 95.444647 
L 195.674055 91.832112 
L 195.893194 95.311412 
L 196.002764 95.425363 
L 196.112333 94.696077 
L 196.221903 96.268015 
L 196.550611 93.412231 
L 196.660181 93.271399 
L 196.769751 96.062903 
L 197.098459 94.359484 
L 197.427168 95.143115 
L 197.536737 95.813964 
L 197.646307 94.673287 
L 197.755876 96.427546 
L 197.975015 94.863789 
L 198.303724 96.059981 
L 198.413294 97.803137 
L 198.522863 95.115066 
L 198.632433 96.388978 
L 198.742002 95.26291 
L 198.851572 97.082033 
L 199.070711 96.092706 
L 199.18028 95.953043 
L 199.28985 97.222864 
L 199.39942 93.083234 
L 199.508989 96.505266 
L 199.618559 95.964146 
L 199.728128 97.915919 
L 199.947267 95.636902 
L 200.056837 97.423301 
L 200.166406 96.695184 
L 200.275976 96.752452 
L 200.385545 96.572468 
L 200.495115 97.524396 
L 200.714254 95.723972 
L 200.933393 99.806919 
L 201.042963 96.720312 
L 201.262102 98.936802 
L 201.481241 97.110082 
L 201.59081 97.539589 
L 201.70038 96.929514 
L 201.809949 95.368095 
L 202.029088 97.348502 
L 202.248228 99.443445 
L 202.357797 96.740764 
L 202.467367 98.347764 
L 202.576936 96.903802 
L 202.796075 98.887715 
L 202.905645 98.667995 
L 203.015214 98.958423 
L 203.124784 94.414414 
L 203.453492 101.522025 
L 203.563062 98.473986 
L 203.672632 99.438186 
L 203.782201 97.433819 
L 204.00134 100.263891 
L 204.220479 98.240241 
L 204.330049 100.804427 
L 204.439618 99.369231 
L 204.549188 99.394358 
L 204.658757 98.238488 
L 204.877896 99.639207 
L 205.097036 99.607651 
L 205.535314 100.593472 
L 205.644883 101.518519 
L 205.754453 100.357389 
L 205.864022 100.669439 
L 205.973592 99.891652 
L 206.083161 100.868123 
L 206.3023 99.984565 
L 206.52144 99.123798 
L 206.631009 100.054689 
L 206.740579 102.160735 
L 206.850148 100.304797 
L 206.959718 102.052043 
L 207.069287 98.938555 
L 207.178857 101.915302 
L 207.288426 100.10845 
L 207.507565 101.141605 
L 207.617135 100.062286 
L 207.726705 103.29849 
L 207.836274 101.224 
L 208.055413 102.062562 
L 208.164983 101.529038 
L 208.274552 102.055549 
L 208.493691 101.063885 
L 208.603261 99.413058 
L 208.71283 99.983981 
L 208.8224 102.65569 
L 208.931969 102.41318 
L 209.041539 99.303198 
L 209.260678 101.975491 
L 209.370248 101.692075 
L 209.589387 100.466665 
L 209.808526 103.900384 
L 209.918095 100.950518 
L 210.027665 101.551244 
L 210.137234 100.122475 
L 210.356373 102.882423 
L 210.465943 104.137636 
L 210.685082 103.081107 
L 210.794652 103.046045 
L 210.904221 103.363354 
L 211.013791 104.217109 
L 211.12336 103.007477 
L 211.342499 104.97795 
L 211.452069 104.107249 
L 211.561638 104.144648 
L 211.780777 101.745252 
L 211.999917 105.937475 
L 212.109486 102.367599 
L 212.219056 105.224552 
L 212.328625 104.351513 
L 212.438195 105.773853 
L 212.547764 103.347577 
L 212.657334 105.744051 
L 212.766903 103.339395 
L 212.876473 104.831859 
L 212.986042 102.421361 
L 213.205181 106.302118 
L 213.314751 104.759398 
L 213.53389 105.064436 
L 213.64346 102.673221 
L 213.862599 105.708405 
L 213.972168 105.349021 
L 214.081738 104.591686 
L 214.300877 105.279482 
L 214.410446 104.634929 
L 214.520016 105.419145 
L 214.629585 107.034325 
L 214.739155 106.272315 
L 214.848725 107.439289 
L 214.958294 105.92345 
L 215.067864 100.972724 
L 215.287003 106.778374 
L 215.396572 103.861816 
L 215.506142 105.817096 
L 215.615711 105.18949 
L 215.725281 108.265579 
L 215.83485 107.417667 
L 215.94442 109.638248 
L 216.273129 105.130469 
L 216.382698 107.79575 
L 216.492268 107.717446 
L 216.601837 108.992527 
L 216.711407 108.906041 
L 216.930546 109.980101 
L 217.149685 107.892755 
L 217.259254 108.20013 
L 217.368824 109.774989 
L 217.587963 107.739652 
L 217.697533 109.602018 
L 217.807102 107.515256 
L 218.026241 111.111428 
L 218.135811 109.54884 
L 218.24538 109.807129 
L 218.35495 110.916251 
L 218.574089 109.159654 
L 218.683658 108.693917 
L 218.793228 110.763148 
L 218.902798 109.014148 
L 219.012367 109.444239 
L 219.121937 112.473579 
L 219.231506 110.469797 
L 219.450645 112.409883 
L 219.560215 109.348988 
L 219.779354 112.101924 
L 219.888923 107.816203 
L 219.998493 111.693454 
L 220.108062 106.894662 
L 220.327202 111.294334 
L 220.436771 108.445562 
L 220.546341 110.475641 
L 220.65591 110.002891 
L 220.875049 110.727501 
L 220.984619 110.576736 
L 221.203758 112.208862 
L 221.422897 109.55819 
L 221.532466 111.828442 
L 221.642036 110.087039 
L 221.751606 113.297531 
L 221.861175 112.905424 
L 221.970745 112.088484 
L 222.080314 112.397027 
L 222.189884 109.617211 
L 222.299453 114.301468 
L 222.409023 113.014115 
L 222.518592 115.211321 
L 222.737731 113.409145 
L 222.847301 114.784152 
L 222.95687 111.333486 
L 223.06644 114.497814 
L 223.17601 112.904839 
L 223.285579 113.203449 
L 223.395149 112.953341 
L 223.504718 114.177583 
L 223.614288 117.085375 
L 223.723857 113.296363 
L 223.833427 115.210737 
L 223.942996 113.770281 
L 224.052566 116.452509 
L 224.162135 113.874298 
L 224.271705 116.870329 
L 224.381275 116.516205 
L 224.490844 114.526447 
L 224.600414 114.740324 
L 224.709983 113.548808 
L 224.929122 118.257608 
L 225.148261 113.159622 
L 225.3674 115.510515 
L 225.47697 115.415849 
L 225.696109 118.467394 
L 225.805679 116.88786 
L 225.915248 117.152576 
L 226.024818 118.214365 
L 226.243957 113.837483 
L 226.353526 118.469731 
L 226.463096 117.201663 
L 226.572665 117.683763 
L 226.682235 113.165465 
L 226.791804 117.33782 
L 226.901374 117.278215 
L 227.010943 115.587651 
L 227.120513 117.551697 
L 227.339652 116.484065 
L 227.558791 119.820195 
L 227.668361 115.580055 
L 227.997069 120.973144 
L 228.106639 116.990708 
L 228.325778 120.212303 
L 228.435347 116.717226 
L 228.544917 118.195081 
L 228.654487 117.499104 
L 228.873626 122.862975 
L 229.092765 118.198587 
L 229.202334 120.069134 
L 229.311904 120.061537 
L 229.531043 117.79187 
L 229.640612 118.51648 
L 229.859751 124.522567 
L 230.078891 121.212733 
L 230.18846 122.993872 
L 230.407599 119.442696 
L 230.517169 123.76231 
L 230.626738 118.230142 
L 230.736308 119.300112 
L 230.845877 125.041482 
L 230.955447 121.441219 
L 231.065016 124.665152 
L 231.174586 121.054955 
L 231.284155 124.470559 
L 231.503295 121.201046 
L 231.612864 125.454042 
L 231.722434 118.346431 
L 231.832003 122.508851 
L 231.941573 121.056124 
L 232.051142 121.840924 
L 232.160712 124.090138 
L 232.59899 121.721713 
L 232.70856 122.898621 
L 232.818129 122.571378 
L 232.927699 124.433744 
L 233.037268 120.964379 
L 233.256407 124.058583 
L 233.365977 122.501254 
L 233.475546 125.604808 
L 233.585116 120.904773 
L 233.694685 122.17927 
L 233.804255 125.090568 
L 233.913824 124.680345 
L 234.132964 125.275227 
L 234.242533 122.268678 
L 234.352103 126.469666 
L 234.461672 123.75296 
L 234.571242 125.03856 
L 234.680811 124.692032 
L 234.89995 122.266924 
L 235.00952 125.214453 
L 235.119089 125.201597 
L 235.228659 119.32933 
L 235.338228 126.07522 
L 235.447798 125.33191 
L 235.557368 125.498454 
L 235.666937 123.32696 
L 235.776507 125.056675 
L 235.886076 124.146237 
L 236.105215 126.179237 
L 236.214785 124.921687 
L 236.324354 128.253727 
L 236.433924 126.261048 
L 236.543493 121.303309 
L 236.653063 126.176315 
L 236.762632 119.577684 
L 236.872202 125.251268 
L 236.981772 123.027181 
L 237.200911 125.101087 
L 237.31048 125.442355 
L 237.42005 128.461176 
L 237.529619 124.573991 
L 237.639189 128.346056 
L 237.748758 124.210517 
L 237.967897 127.561841 
L 238.077467 126.802753 
L 238.187036 122.337632 
L 238.296606 128.925745 
L 238.406176 123.906648 
L 238.625315 126.867033 
L 238.734884 121.276429 
L 238.954023 129.839689 
L 239.392301 122.121418 
L 239.61144 127.210638 
L 239.72101 125.427746 
L 239.83058 128.218081 
L 239.940149 128.097702 
L 240.049719 122.761296 
L 240.159288 128.333785 
L 240.268858 128.176007 
L 240.378427 126.856514 
L 240.487997 128.713621 
L 240.597566 128.088937 
L 240.707136 129.977599 
L 240.926275 126.556736 
L 241.035845 124.223373 
L 241.145414 125.433005 
L 241.254984 129.222601 
L 241.364553 129.12735 
L 241.474123 131.882623 
L 241.693262 121.250717 
L 241.912401 128.96665 
L 242.02197 127.128828 
L 242.241109 128.699012 
L 242.350679 126.307797 
L 242.679388 130.078694 
L 242.788957 128.642913 
L 243.008096 130.137714 
L 243.117666 128.892436 
L 243.336805 130.726753 
L 243.446374 131.380071 
L 243.665513 130.594102 
L 243.775083 131.356112 
L 243.884653 127.460162 
L 244.103792 132.689045 
L 244.213361 131.163857 
L 244.322931 127.19077 
L 244.54207 133.301458 
L 244.761209 127.804352 
L 244.870778 133.977566 
L 244.980348 133.70759 
L 245.089917 135.520285 
L 245.418626 129.088782 
L 245.528196 135.027083 
L 245.747335 131.873274 
L 246.076043 133.793492 
L 246.185613 131.862171 
L 246.295182 133.604158 
L 246.404752 132.211036 
L 246.514321 129.058395 
L 246.733461 133.390865 
L 246.84303 133.3634 
L 246.9526 134.69458 
L 247.062169 129.171177 
L 247.171739 134.840671 
L 247.281308 131.315207 
L 247.390878 137.215523 
L 247.500447 132.902922 
L 247.719586 136.870749 
L 247.829156 135.735331 
L 247.938725 132.051504 
L 248.157865 136.878346 
L 248.267434 137.669574 
L 248.486573 133.432355 
L 248.596143 134.516933 
L 248.705712 136.793613 
L 248.815282 131.36254 
L 248.924851 136.953144 
L 249.034421 126.974556 
L 249.25356 136.183538 
L 249.36313 134.069311 
L 249.472699 135.854541 
L 249.691838 134.745419 
L 249.910977 138.865765 
L 250.020547 135.886681 
L 250.130116 136.11692 
L 250.239686 132.206945 
L 250.349255 136.922173 
L 250.458825 134.21248 
L 250.568394 137.369795 
L 250.677964 136.146138 
L 250.787534 141.0507 
L 250.897103 137.091054 
L 251.116242 138.256275 
L 251.225812 138.42574 
L 251.335381 137.657886 
L 251.444951 140.235513 
L 251.55452 136.868412 
L 251.66409 136.963663 
L 251.883229 142.672893 
L 251.992798 137.960587 
L 252.102368 138.771099 
L 252.211938 140.833317 
L 252.321507 138.222966 
L 252.431077 138.808498 
L 252.540646 140.618856 
L 252.650216 139.90827 
L 252.759785 136.438904 
L 252.869355 137.13605 
L 252.978924 139.422664 
L 253.088494 148.992782 
L 253.307633 138.380744 
L 253.526772 142.659452 
L 253.636342 140.862535 
L 253.855481 141.230684 
L 253.96505 141.051284 
L 254.07462 137.376808 
L 254.184189 143.374129 
L 254.293759 141.151795 
L 254.622467 143.776171 
L 254.732037 139.614919 
L 254.841606 145.065861 
L 254.951176 140.16948 
L 255.170315 146.027138 
L 255.499024 142.103723 
L 255.608593 145.185071 
L 255.718163 138.878621 
L 256.26601 144.884708 
L 256.37558 144.697127 
L 256.48515 140.203958 
L 256.594719 141.587146 
L 256.813858 147.405067 
L 256.923428 144.270542 
L 257.142567 144.818091 
L 257.252136 146.267896 
L 257.361706 144.966519 
L 257.471275 147.664524 
L 257.580845 144.149579 
L 257.690415 146.344448 
L 257.909554 145.08047 
L 258.019123 146.428596 
L 258.128693 144.517143 
L 258.238262 145.237079 
L 258.457401 144.376312 
L 258.566971 140.91279 
L 258.78611 149.514035 
L 258.895679 144.963013 
L 259.005249 148.10455 
L 259.114819 143.219857 
L 259.224388 147.571611 
L 259.333958 143.977776 
L 259.443527 148.15948 
L 259.553097 146.86979 
L 259.662666 141.263408 
L 259.772236 147.786072 
L 259.881805 147.468763 
L 260.100944 150.086126 
L 260.320083 145.717426 
L 260.429653 147.763866 
L 260.539223 146.431518 
L 260.648792 148.154805 
L 260.758362 152.057184 
L 260.867931 147.621282 
L 261.08707 150.810152 
L 261.19664 144.162435 
L 261.306209 144.200419 
L 261.415779 149.272692 
L 261.525348 147.827562 
L 261.634918 148.745597 
L 261.744487 146.340357 
L 261.963627 149.312429 
L 262.073196 146.299452 
L 262.292335 149.9862 
L 262.511474 146.922967 
L 262.621044 152.098089 
L 262.730613 149.910233 
L 262.840183 151.003577 
L 262.949752 148.158312 
L 263.059322 153.059367 
L 263.168891 148.604181 
L 263.388031 151.588524 
L 263.4976 151.827529 
L 263.716739 149.057647 
L 263.826309 152.102764 
L 264.045448 145.524002 
L 264.264587 153.248116 
L 264.374156 152.637457 
L 264.483726 155.281701 
L 264.593295 149.468454 
L 264.702865 153.238182 
L 264.812435 151.102918 
L 264.922004 143.105906 
L 265.141143 152.155941 
L 265.250713 152.123217 
L 265.360282 155.089445 
L 265.469852 147.332606 
L 265.688991 155.621216 
L 265.90813 152.1612 
L 266.0177 156.212592 
L 266.236839 151.939727 
L 266.346408 154.9977 
L 266.455978 153.07456 
L 266.675117 155.836262 
L 266.784686 150.101904 
L 266.894256 154.141024 
L 267.003825 153.906109 
L 267.113395 155.4611 
L 267.222964 153.003852 
L 267.332534 153.404726 
L 267.442104 157.397096 
L 267.661243 151.090647 
L 267.880382 157.051737 
L 267.989951 153.65308 
L 268.099521 158.15969 
L 268.20909 150.51388 
L 268.31866 157.108421 
L 268.428229 153.816702 
L 268.537799 160.548568 
L 268.756938 156.039036 
L 268.866508 155.184112 
L 268.976077 145.834883 
L 269.195216 157.262108 
L 269.304786 161.303565 
L 269.523925 154.362497 
L 269.743064 160.026731 
L 269.852633 154.674547 
L 269.962203 159.927389 
L 270.071772 155.029256 
L 270.181342 160.525193 
L 270.290912 160.484288 
L 270.400481 161.637237 
L 270.510051 161.134684 
L 270.61962 158.062102 
L 270.72919 159.486779 
L 270.838759 157.090305 
L 270.948329 161.408751 
L 271.057898 159.296277 
L 271.167468 161.158643 
L 271.386607 155.818731 
L 271.496176 164.806823 
L 271.605746 155.696014 
L 271.715316 159.028639 
L 271.934455 155.862558 
L 272.044024 160.126657 
L 272.263163 156.477308 
L 272.372733 159.878887 
L 272.591872 159.213297 
L 272.701441 159.698319 
L 272.811011 156.2459 
L 272.92058 157.477154 
L 273.03015 156.112665 
L 273.13972 162.728243 
L 273.249289 162.303995 
L 273.358859 154.137517 
L 273.577998 161.672298 
L 273.687567 159.199857 
L 273.797137 163.302088 
L 273.906706 161.26266 
L 274.016276 165.965032 
L 274.125845 157.009079 
L 274.344985 159.697735 
L 274.673693 158.446613 
L 274.783263 163.21268 
L 274.892832 156.31544 
L 275.111971 162.862062 
L 275.221541 166.700745 
L 275.44068 159.139083 
L 275.550249 164.903828 
L 275.659819 161.296553 
L 275.878958 164.102666 
L 275.988528 167.591315 
L 276.207667 159.043248 
L 276.317236 160.984503 
L 276.426806 151.687866 
L 276.645945 164.143571 
L 276.755514 159.973554 
L 276.974653 165.475335 
L 277.084223 165.274314 
L 277.193793 166.28351 
L 277.303362 165.155688 
L 277.522501 160.905614 
L 277.632071 162.502679 
L 277.85121 158.531345 
L 277.960779 164.37381 
L 278.070349 163.456944 
L 278.179918 163.946056 
L 278.289488 165.580521 
L 278.399057 161.537895 
L 278.618197 164.913762 
L 278.727766 164.061176 
L 278.837336 172.172139 
L 279.056475 164.260444 
L 279.166044 167.158302 
L 279.275614 162.959651 
L 279.385183 169.915912 
L 279.604322 166.566926 
L 279.713892 165.583442 
L 279.823461 162.159657 
L 279.933031 171.6205 
L 280.042601 167.370425 
L 280.15217 167.865381 
L 280.26174 170.579749 
L 280.371309 170.184135 
L 280.480879 170.880112 
L 280.590448 173.877896 
L 280.809587 163.837365 
L 280.919157 165.481763 
L 281.028726 173.145688 
L 281.138296 171.773603 
L 281.247865 165.626101 
L 281.357435 169.588084 
L 281.467005 166.566342 
L 281.576574 169.324537 
L 281.686144 167.192195 
L 281.795713 168.699852 
L 281.905283 168.350403 
L 282.014852 171.300853 
L 282.124422 167.933752 
L 282.233991 174.308572 
L 282.45313 164.680017 
L 282.67227 170.481576 
L 282.781839 169.435566 
L 282.891409 162.264258 
L 283.000978 174.724054 
L 283.110548 169.585163 
L 283.220117 169.601525 
L 283.329687 167.211479 
L 283.439256 171.099248 
L 283.548826 168.65135 
L 283.658395 169.255582 
L 283.767965 173.065046 
L 283.877534 171.282154 
L 283.987104 173.343203 
L 284.206243 170.153748 
L 284.315813 175.228944 
L 284.534952 166.84333 
L 284.754091 175.615208 
L 284.86366 172.425753 
L 284.97323 176.302419 
L 285.082799 169.991879 
L 285.411508 176.594017 
L 285.630647 175.464442 
L 285.740217 176.856396 
L 285.849786 170.820507 
L 286.178495 175.982188 
L 286.288064 174.238448 
L 286.397634 177.687945 
L 286.507203 172.449127 
L 286.616773 174.25072 
L 286.726342 172.792733 
L 286.835912 174.097032 
L 286.945482 181.174257 
L 287.164621 172.944083 
L 287.27419 176.553696 
L 287.38376 174.603091 
L 287.602899 177.349014 
L 287.712468 170.447099 
L 287.822038 171.00984 
L 288.041177 181.269508 
L 288.260316 176.059324 
L 288.369886 180.560091 
L 288.479455 169.334471 
L 288.698594 178.676103 
L 288.808164 178.53644 
L 289.027303 176.959828 
L 289.136872 176.807309 
L 289.246442 172.338098 
L 289.356011 172.508732 
L 289.465581 173.184256 
L 289.68472 179.295528 
L 289.79429 162.493913 
L 289.903859 177.278306 
L 290.013429 176.621482 
L 290.232568 182.207995 
L 290.342137 174.123913 
L 290.561276 180.120649 
L 290.670846 174.300975 
L 290.780415 175.235372 
L 290.889985 184.537852 
L 291.109124 177.37531 
L 291.218694 182.591338 
L 291.328263 175.434055 
L 291.547402 182.854301 
L 291.656972 178.220884 
L 291.876111 182.752622 
L 291.98568 176.570058 
L 292.204819 184.032962 
L 292.314389 179.389611 
L 292.533528 183.530994 
L 292.643098 172.310049 
L 292.862237 185.43485 
L 292.971806 185.649311 
L 293.190945 179.936575 
L 293.300515 182.410769 
L 293.410084 180.461918 
L 293.519654 175.429965 
L 293.848363 184.700305 
L 293.957932 187.149956 
L 294.067502 180.864544 
L 294.177071 181.884258 
L 294.286641 164.620996 
L 294.39621 179.328253 
L 294.50578 177.875525 
L 294.615349 184.735367 
L 294.724919 179.033149 
L 294.834488 185.816439 
L 294.944058 182.241888 
L 295.053627 186.039082 
L 295.163197 184.845812 
L 295.382336 177.399854 
L 295.601475 189.129195 
L 295.711045 178.503716 
L 295.820614 179.787562 
L 295.930184 186.016291 
L 296.039753 185.294603 
L 296.258892 186.10453 
L 296.368462 182.831511 
L 296.478031 183.654295 
L 296.587601 188.611449 
L 296.697171 187.654846 
L 296.80674 189.534743 
L 296.91631 182.239551 
L 297.025879 186.484366 
L 297.135449 181.539484 
L 297.245018 190.400185 
L 297.464157 182.147222 
L 297.573727 187.324097 
L 297.683296 185.892991 
L 297.792866 190.742622 
L 297.902435 182.786515 
L 298.012005 185.396866 
L 298.121575 185.112866 
L 298.231144 189.654538 
L 298.340714 182.416029 
L 298.450283 183.632673 
L 298.559853 186.889915 
L 298.669422 180.356148 
L 298.778992 191.526253 
L 298.888561 185.729369 
L 298.998131 190.241823 
L 299.21727 180.571778 
L 299.32684 180.678132 
L 299.436409 188.431465 
L 299.545979 182.313181 
L 299.765118 191.277899 
L 299.874687 183.221866 
L 299.984257 188.604437 
L 300.093826 180.278428 
L 300.312965 187.570698 
L 300.422535 196.821754 
L 300.641674 188.443737 
L 300.751244 191.040063 
L 300.860813 188.430881 
L 300.970383 194.549165 
L 301.079952 185.607821 
L 301.299091 190.351099 
L 301.408661 193.514258 
L 301.51823 167.633973 
L 301.737369 192.342025 
L 301.846939 192.473506 
L 301.956508 190.739116 
L 302.066078 185.376413 
L 302.285217 192.633038 
L 302.394787 188.641252 
L 302.613926 194.500663 
L 302.723495 189.672068 
L 302.833065 193.822217 
L 303.052204 190.867676 
L 303.161773 183.181545 
L 303.271343 189.178281 
L 303.380912 185.666258 
L 303.600052 194.049534 
L 303.709621 180.04702 
L 303.92876 194.188613 
L 304.03833 195.432722 
L 304.147899 189.5102 
L 304.476608 194.009798 
L 304.586177 191.848238 
L 304.695747 196.370626 
L 304.805316 190.167609 
L 305.024456 193.940843 
L 305.134025 189.5102 
L 305.353164 193.931493 
L 305.462734 192.468247 
L 305.791442 198.571922 
L 305.901012 196.337317 
L 306.010581 191.489438 
L 306.120151 196.856816 
L 306.22972 194.438136 
L 306.44886 198.469074 
L 306.667999 195.074508 
L 306.777568 187.540895 
L 306.887138 199.153948 
L 306.996707 195.027174 
L 307.106277 198.435181 
L 307.325416 198.241173 
L 307.544555 191.752402 
L 307.654125 192.712511 
L 307.873264 195.340977 
L 307.982833 191.530928 
L 308.092403 198.019699 
L 308.201972 184.125876 
L 308.311542 200.125744 
L 308.530681 192.540708 
L 308.64025 198.654902 
L 308.74982 191.229981 
L 308.859389 196.235638 
L 308.968959 193.035664 
L 309.188098 201.737419 
L 309.297668 192.288263 
L 309.407237 197.321385 
L 309.516807 195.037108 
L 309.626376 199.422171 
L 309.845515 191.630854 
L 310.064654 200.467597 
L 310.174224 198.580688 
L 310.283793 199.776295 
L 310.393363 197.905164 
L 310.502933 193.824554 
L 310.831641 203.121775 
L 310.941211 198.109691 
L 311.05078 198.249938 
L 311.16035 194.036678 
L 311.269919 205.090496 
L 311.489058 197.797641 
L 311.598628 198.493618 
L 311.817767 196.198238 
L 312.036906 202.649025 
L 312.146476 195.13645 
L 312.365615 197.737451 
L 312.475184 194.52579 
L 312.584754 198.837223 
L 312.694323 197.566233 
L 313.023032 202.401255 
L 313.132601 202.614548 
L 313.242171 194.473782 
L 313.46131 205.685962 
L 313.680449 201.847863 
L 313.790019 205.532859 
L 314.009158 197.750892 
L 314.118727 200.540642 
L 314.337866 198.466153 
L 314.447436 200.940347 
L 314.557005 199.271405 
L 314.776145 203.596863 
L 314.995284 198.092744 
L 315.104853 199.076812 
L 315.214423 206.508161 
L 315.323992 199.094928 
L 315.543131 203.137553 
L 315.652701 198.569001 
L 315.76227 201.52471 
L 315.87184 195.614459 
L 315.98141 195.989621 
L 316.200549 209.002808 
L 316.310118 212.773121 
L 316.529257 196.540091 
L 316.638827 201.761962 
L 316.748396 199.67111 
L 316.857966 207.955045 
L 317.077105 198.502967 
L 317.186674 201.11215 
L 317.296244 196.682091 
L 317.405814 204.1 
L 317.515383 193.147277 
L 317.734522 201.87416 
L 317.844092 198.480177 
L 317.953661 200.540058 
L 318.063231 198.664252 
L 318.1728 202.39249 
L 318.28237 201.913896 
L 318.501509 208.502593 
L 318.611078 199.931736 
L 318.720648 204.542363 
L 318.830218 204.12279 
L 318.939787 207.290624 
L 319.049357 201.556266 
L 319.158926 214.702104 
L 319.268496 207.690328 
L 319.487635 208.431885 
L 319.706774 203.033537 
L 319.816343 207.309908 
L 319.925913 205.617007 
L 320.035482 210.720836 
L 320.254622 203.256763 
L 320.364191 214.63198 
L 320.58333 206.91254 
L 320.6929 210.343338 
L 320.802469 209.116175 
L 320.912039 214.610943 
L 321.021608 208.044452 
L 321.131178 208.176518 
L 321.240747 205.729789 
L 321.350317 207.365422 
L 321.569456 212.074222 
L 321.679026 208.317934 
L 321.788595 215.644098 
L 321.898165 201.63048 
L 322.226873 211.487521 
L 322.336443 204.871944 
L 322.446012 212.281671 
L 322.88429 203.055742 
L 322.99386 204.405622 
L 323.10343 197.298595 
L 323.212999 210.454367 
L 323.322569 209.791114 
L 323.541708 215.456517 
L 323.651277 216.192815 
L 323.870416 203.954493 
L 324.089555 215.92167 
L 324.199125 210.120111 
L 324.308695 210.632013 
L 324.418264 212.262387 
L 324.527834 218.313469 
L 324.637403 209.628661 
L 324.746973 213.57253 
L 324.966112 209.122603 
L 325.075681 215.126352 
L 325.185251 211.041068 
L 325.29482 211.390517 
L 325.513959 221.317097 
L 325.733099 209.536332 
L 325.842668 207.039347 
L 325.952238 215.817654 
L 326.061807 215.030516 
L 326.171377 211.338508 
L 326.280946 214.311749 
L 326.390516 210.74012 
L 326.500085 216.255342 
L 326.719224 212.610083 
L 326.938363 219.201702 
L 327.267072 210.429239 
L 327.376642 202.933026 
L 327.595781 219.013537 
L 327.81492 209.882275 
L 327.924489 220.803442 
L 328.034059 203.111257 
L 328.143628 206.701001 
L 328.253198 218.049337 
L 328.472337 211.72302 
L 328.691476 221.853543 
L 328.801046 215.703118 
L 328.910615 216.19749 
L 329.020185 219.738732 
L 329.129754 219.043339 
L 329.239324 219.506739 
L 329.348893 218.527346 
L 329.458463 216.174115 
L 329.568032 224.774191 
L 329.787171 215.363019 
L 330.006311 224.450453 
L 330.11588 222.316358 
L 330.22545 230.764499 
L 330.444589 216.253004 
L 330.554158 218.860434 
L 330.663728 215.246731 
L 330.773297 223.68669 
L 330.992436 212.800586 
L 331.321145 223.615983 
L 331.430715 220.313161 
L 331.649854 230.830532 
L 331.868993 219.325587 
L 331.978562 222.289478 
L 332.088132 219.953777 
L 332.307271 224.820355 
L 332.41684 225.031311 
L 332.63598 221.482472 
L 332.745549 214.734244 
L 332.855119 225.862275 
L 332.964688 220.595993 
L 333.074258 228.390815 
L 333.293397 222.388819 
L 333.402966 224.154181 
L 333.512536 221.460266 
L 333.622105 232.086329 
L 333.731675 225.775789 
L 333.841244 228.98336 
L 333.950814 224.86652 
L 334.060384 234.762129 
L 334.169953 217.238241 
L 334.498662 225.263303 
L 334.717801 229.705633 
L 334.82737 221.715049 
L 334.93694 221.908473 
L 335.046509 220.97057 
L 335.156079 224.721598 
L 335.265648 223.625917 
L 335.375218 234.545915 
L 335.703927 224.324231 
L 335.813496 223.593777 
L 335.923066 227.528295 
L 336.032635 222.547182 
L 336.142205 224.307284 
L 336.251774 228.735006 
L 336.470913 225.649567 
L 336.580483 229.069261 
L 336.690052 224.700561 
L 336.799622 225.226488 
L 336.909192 233.656514 
L 337.018761 231.019282 
L 337.128331 222.712557 
L 337.2379 230.64003 
L 337.34747 229.384818 
L 337.457039 232.878726 
L 337.566609 232.642643 
L 337.676178 238.523676 
L 337.785748 232.765944 
L 337.895317 219.018796 
L 338.004887 231.254196 
L 338.114456 227.160146 
L 338.224026 206.062292 
L 338.333596 230.762746 
L 338.443165 229.955156 
L 338.552735 225.575937 
L 338.662304 229.203081 
L 338.771874 227.675555 
L 338.991013 235.262929 
L 339.100582 234.241461 
L 339.210152 231.363472 
L 339.319721 233.05871 
L 339.429291 232.195021 
L 339.53886 233.146364 
L 339.64843 218.062193 
L 339.758 235.302665 
L 339.867569 228.557359 
L 340.086708 237.031796 
L 340.196278 227.778987 
L 340.305847 234.683824 
L 340.415417 229.715567 
L 340.524986 237.645378 
L 340.853695 227.284616 
L 340.963265 230.705479 
L 341.072834 230.349017 
L 341.182404 235.785934 
L 341.511112 230.865594 
L 341.620682 233.577625 
L 341.730251 229.923601 
L 341.839821 230.217535 
L 342.05896 240.619787 
L 342.168529 230.765084 
L 342.387669 240.895607 
L 342.497238 239.527612 
L 342.606808 230.327396 
L 342.716377 241.875 
L 342.935516 232.082823 
L 343.154655 239.912708 
L 343.373794 231.911605 
L 343.483364 237.87737 
L 343.702503 234.135107 
L 343.921642 242.341322 
L 344.250351 227.237867 
L 344.46949 242.181206 
L 344.688629 237.917691 
L 344.798198 238.812936 
L 344.907768 237.305863 
L 345.017337 233.139352 
L 345.236477 244.546709 
L 345.346046 241.112406 
L 345.455616 242.579742 
L 345.565185 241.689172 
L 345.674755 234.258992 
L 345.784324 235.398501 
L 345.893894 243.16878 
L 346.003463 242.586754 
L 346.113033 237.736539 
L 346.222602 239.674872 
L 346.332172 246.357067 
L 346.441741 237.055755 
L 346.551311 241.799033 
L 346.660881 234.64701 
L 346.989589 244.769936 
L 347.099159 237.113607 
L 347.208728 244.265046 
L 347.318298 240.471943 
L 347.427867 242.037453 
L 347.537437 240.315334 
L 347.647006 240.870479 
L 347.756576 240.19028 
L 347.866145 242.488581 
L 347.975715 240.144116 
L 348.194854 252.295952 
L 348.304424 233.224085 
L 348.413993 248.266182 
L 348.523563 233.160974 
L 348.633132 247.394312 
L 348.961841 240.81029 
L 349.07141 243.313118 
L 349.18098 242.413783 
L 349.29055 237.86393 
L 349.400119 246.212729 
L 349.509689 228.825582 
L 349.728828 249.232134 
L 349.947967 233.811954 
L 350.057536 241.550678 
L 350.167106 227.78074 
L 350.276675 244.182651 
L 350.386245 235.084698 
L 350.495814 249.351929 
L 350.605384 237.401114 
L 350.714954 251.261044 
L 350.934093 237.213533 
L 351.153232 245.019459 
L 351.262801 243.590691 
L 351.48194 247.659028 
L 351.59151 242.549355 
L 351.701079 250.055502 
L 351.810649 248.223523 
L 352.029788 233.057541 
L 352.139358 251.021455 
L 352.468066 243.761909 
L 352.577636 257.05676 
L 352.796775 244.615664 
L 352.906344 242.094136 
L 353.015914 252.998356 
L 353.125483 250.081214 
L 353.344622 233.108381 
L 353.563762 250.520656 
L 353.673331 235.71581 
L 353.89247 250.968862 
L 354.00204 250.137898 
L 354.111609 255.175694 
L 354.330748 242.965422 
L 354.549887 251.161702 
L 354.769026 229.394167 
L 355.097735 252.977319 
L 355.316874 246.979414 
L 355.426444 249.472892 
L 355.645583 256.307606 
L 355.864722 248.855804 
L 355.974291 253.07783 
L 356.083861 249.995897 
L 356.303 253.438382 
L 356.41257 245.984827 
L 356.522139 250.729858 
L 356.741278 248.518042 
L 356.960417 250.611232 
L 357.069987 248.612709 
L 357.289126 253.811206 
L 357.398695 244.936479 
L 357.508265 250.918607 
L 357.617835 245.156784 
L 357.727404 256.685105 
L 357.836974 246.791249 
L 357.946543 254.586656 
L 358.056113 247.826741 
L 358.275252 253.159641 
L 358.384821 255.459695 
L 358.494391 244.599302 
L 358.71353 250.898739 
L 358.823099 237.128801 
L 359.042239 258.583117 
L 359.261378 247.053628 
L 359.370947 245.261385 
L 359.480517 253.026406 
L 359.590086 246.787158 
L 359.699656 253.621872 
L 359.918795 244.704487 
L 360.028364 247.142451 
L 360.137934 245.49104 
L 360.247503 259.326427 
L 360.357073 241.378291 
L 360.466643 249.796045 
L 360.576212 243.781777 
L 360.685782 253.983593 
L 360.795351 252.546643 
L 360.904921 257.171295 
L 361.01449 255.428723 
L 361.12406 251.770024 
L 361.233629 255.777004 
L 361.562338 245.453641 
L 361.671907 251.639711 
L 361.781477 242.467544 
L 361.891047 254.155396 
L 362.000616 250.067774 
L 362.110186 253.608432 
L 362.219755 246.51017 
L 362.438894 256.710232 
L 362.658033 255.052393 
L 362.767603 235.058986 
L 362.986742 261.293978 
L 363.205881 243.168196 
L 363.315451 243.767753 
L 363.53459 251.96228 
L 363.644159 262.801636 
L 363.753729 250.399108 
L 363.972868 257.933889 
L 364.082437 253.70193 
L 364.192007 257.107015 
L 364.301576 255.460863 
L 364.411146 263.277308 
L 364.520715 261.156653 
L 364.739855 250.948994 
L 364.849424 255.600526 
L 365.178133 250.120367 
L 365.397272 258.944253 
L 365.72598 246.868969 
L 365.83555 247.08343 
L 365.94512 263.145826 
L 366.164259 245.174315 
L 366.383398 264.111779 
L 366.492967 255.977441 
L 366.602537 263.937638 
L 366.821676 255.765317 
L 366.931245 259.80093 
L 367.040815 242.493256 
L 367.150384 257.167789 
L 367.259954 254.791183 
L 367.369524 263.819012 
L 367.479093 260.628389 
L 367.698232 262.054235 
L 367.917371 266.504746 
L 368.026941 274.117248 
L 368.24608 251.696979 
L 368.355649 266.663109 
L 368.465219 257.073122 
L 368.684358 258.556236 
L 368.793928 251.715679 
L 368.903497 259.797424 
L 369.013067 258.196268 
L 369.232206 267.966239 
L 369.451345 258.499553 
L 369.560914 257.225056 
L 369.670484 264.148009 
L 369.780053 260.121161 
L 369.889623 264.924044 
L 370.108762 253.018225 
L 370.218332 269.771338 
L 370.327901 258.9799 
L 370.437471 263.141735 
L 370.65661 254.697101 
L 370.766179 259.508164 
L 370.875749 255.498847 
L 370.985318 262.784689 
L 371.094888 256.649458 
L 371.204457 260.239787 
L 371.314027 257.504382 
L 371.423596 265.726374 
L 371.642736 260.756364 
L 371.752305 266.817965 
L 371.861875 261.222102 
L 371.971444 262.631586 
L 372.190583 266.871727 
L 372.300153 263.492353 
L 372.409722 267.210657 
L 372.519292 265.246612 
L 372.628861 248.059317 
L 372.848 265.513082 
L 372.95757 252.672866 
L 373.176709 265.726959 
L 373.286279 259.953449 
L 373.395848 260.500997 
L 373.614987 251.995589 
L 373.724557 255.90498 
L 373.943696 268.216931 
L 374.053265 254.052548 
L 374.272405 267.581728 
L 374.381974 271.138163 
L 374.491544 258.105692 
L 374.601113 266.252886 
L 374.710683 259.429275 
L 374.820252 267.270847 
L 375.039391 258.579026 
L 375.25853 263.317044 
L 375.3681 261.178859 
L 375.477669 263.058756 
L 375.587239 255.382559 
L 375.696809 259.573028 
L 375.806378 258.400795 
L 375.915948 261.700111 
L 376.025517 273.016892 
L 376.135087 270.300771 
L 376.244656 254.716385 
L 376.354226 263.498197 
L 376.463795 261.30216 
L 376.573365 269.919766 
L 376.902073 260.577549 
L 377.011643 271.86628 
L 377.121213 249.279468 
L 377.449921 271.979647 
L 377.559491 260.458923 
L 377.66906 265.368744 
L 377.77863 252.31991 
L 377.997769 269.258267 
L 378.107338 273.677222 
L 378.326477 260.219919 
L 378.436047 261.31969 
L 378.655186 271.202443 
L 378.764756 265.088834 
L 378.983895 271.30646 
L 379.093464 255.387234 
L 379.312603 266.869974 
L 379.422173 260.605598 
L 379.641312 271.826543 
L 379.750881 269.861914 
L 379.860451 274.480137 
L 379.970021 268.100058 
L 380.07959 270.408294 
L 380.18916 277.438185 
L 380.408299 261.891782 
L 380.517868 274.222433 
L 380.627438 262.226038 
L 380.846577 269.497856 
L 380.956146 280.816389 
L 381.065716 278.637883 
L 381.284855 265.383353 
L 381.394425 279.848099 
L 381.503994 259.69516 
L 381.723133 276.213359 
L 381.832703 275.612634 
L 381.942272 267.755868 
L 382.051842 273.375106 
L 382.161411 260.976669 
L 382.59969 269.872432 
L 382.709259 263.512222 
L 382.928398 276.444183 
L 383.147537 267.293637 
L 383.257107 271.764601 
L 383.366676 266.275092 
L 383.476246 268.062075 
L 383.585815 279.64591 
L 383.695385 254.669051 
L 383.804954 271.124139 
L 383.914524 264.300528 
L 384.024094 270.671842 
L 384.133663 267.558354 
L 384.352802 274.519874 
L 384.462372 274.086277 
L 384.571941 263.914264 
L 384.681511 274.581817 
L 384.79108 266.107964 
L 385.010219 275.258509 
L 385.229358 251.705745 
L 385.448498 280.10931 
L 385.558067 269.013418 
L 385.667637 275.981951 
L 385.886776 272.432528 
L 385.996345 266.324178 
L 386.215484 272.402726 
L 386.325054 272.098857 
L 386.544193 262.875266 
L 386.653762 268.146807 
L 386.763332 267.85112 
L 386.872902 269.194571 
L 387.20161 281.235378 
L 387.31118 284.870118 
L 387.530319 275.96033 
L 387.639888 278.740146 
L 387.749458 270.361545 
L 387.859027 274.029009 
L 388.078166 267.111316 
L 388.187736 288.45285 
L 388.297306 278.152277 
L 388.406875 279.128164 
L 388.626014 272.587969 
L 388.735584 275.465374 
L 388.954723 269.526489 
L 389.064292 276.344257 
L 389.173862 270.992073 
L 389.283431 276.420224 
L 389.393001 275.553613 
L 389.61214 282.582335 
L 389.831279 275.479983 
L 390.050418 284.108692 
L 390.269557 274.945291 
L 390.379127 275.352008 
L 390.598266 276.535928 
L 390.707835 276.585014 
L 390.817405 265.351213 
L 390.926975 285.130744 
L 391.146114 270.887472 
L 391.365253 281.419452 
L 391.474822 271.804338 
L 391.693961 280.317927 
L 391.803531 280.818142 
L 391.9131 276.96485 
L 392.02267 280.490315 
L 392.132239 280.454668 
L 392.241809 276.965435 
L 392.351379 280.875994 
L 392.570518 274.234705 
L 392.680087 261.693683 
L 392.789657 279.772132 
L 392.899226 279.561761 
L 393.008796 266.954122 
L 393.118365 271.542543 
L 393.227935 269.491428 
L 393.337504 272.740488 
L 393.447074 270.476664 
L 393.666213 262.853644 
L 393.885352 282.0044 
L 393.994922 277.379748 
L 394.214061 283.379991 
L 394.32363 273.772473 
L 394.4332 290.044071 
L 394.652339 274.836599 
L 394.761908 278.698657 
L 394.871478 276.475154 
L 395.090617 290.418064 
L 395.200187 270.8565 
L 395.309756 290.147503 
L 395.528895 281.084612 
L 395.638465 273.722218 
L 395.748034 275.212345 
L 396.076743 294.873834 
L 396.186312 278.236425 
L 396.295882 281.754877 
L 396.405451 280.827492 
L 396.515021 276.093565 
L 396.624591 288.998061 
L 396.73416 266.286195 
L 396.84373 280.814636 
L 396.953299 278.48887 
L 397.062869 284.012857 
L 397.172438 282.01375 
L 397.282008 283.866766 
L 397.391577 287.811803 
L 397.610716 283.419728 
L 397.720286 283.421481 
L 397.829855 289.910252 
L 398.048995 273.992778 
L 398.158564 289.316539 
L 398.268134 281.602942 
L 398.377703 295.488 
L 398.487273 281.197394 
L 398.487273 281.197394 
" clip-path="url(#p70fbf169d3)" style="fill: none; stroke: #1f77b4; stroke-width: 1.5; stroke-linecap: square"/>
   </g>
   <g id="patch_3">
    <path d="M 57.6 307.584 
L 57.6 41.472 
" style="fill: none; stroke: #000000; stroke-width: 0.8; stroke-linejoin: miter; stroke-linecap: square"/>
   </g>
   <g id="patch_4">
    <path d="M 414.72 307.584 
L 414.72 41.472 
" style="fill: none; stroke: #000000; stroke-width: 0.8; stroke-linejoin: miter; stroke-linecap: square"/>
   </g>
   <g id="patch_5">
    <path d="M 57.6 307.584 
L 414.72 307.584 
" style="fill: none; stroke: #000000; stroke-width: 0.8; stroke-linejoin: miter; stroke-linecap: square"/>
   </g>
   <g id="patch_6">
    <path d="M 57.6 41.472 
L 414.72 41.472 
" style="fill: none; stroke: #000000; stroke-width: 0.8; stroke-linejoin: miter; stroke-linecap: square"/>
   </g>
  </g>
 </g>
 <defs>
  <clipPath id="p70fbf169d3">
   <rect x="57.6" y="41.472" width="357.12" height="266.112"/>
  </clipPath>
 </defs>
</svg>
